<svg width="150" height="46" viewBox="0 0 150 46" fill="none" xmlns="http://www.w3.org/2000/svg">
<mask id="mask0_741_129849" style="mask-type:luminance" maskUnits="userSpaceOnUse" x="0" y="0" width="150" height="46">
<path d="M150 0H0V46H150V0Z" fill="white"/>
</mask>
<g mask="url(#mask0_741_129849)">
<path d="M71.6003 45.6407H70.0993V35.4377L65.1461 42.0687L60.1506 35.345V45.6407H58.6465V32.6479H59.9754L65.1491 39.5919L70.3227 32.6479H71.6003V45.6407Z" fill="#FF6900"/>
<path d="M85.8574 45.6407H87.5249L81.0065 32.6509H79.9464L73.6436 45.6407H75.2926L77.0293 42.0601H84.0637L85.8574 45.6407ZM77.7269 40.6203L80.4871 34.9278L83.3386 40.6203H77.724H77.7269Z" fill="#FF6900"/>
<path d="M100.803 45.6407L96.7711 40.5014C98.7364 40.1423 100.126 38.6388 100.126 36.721C100.126 34.4644 98.2117 32.6509 95.8583 32.6509H89.5615V45.6407H91.0626V40.5855H94.953L98.9177 45.6407H100.799H100.803ZM91.0658 34.0674H95.8615C97.387 34.0674 98.6283 35.2581 98.6283 36.721C98.6283 38.184 97.4654 39.1429 95.8615 39.1429H91.0658V34.0674Z" fill="#FF6900"/>
<path d="M114.427 32.6479H112.37L104.324 40.4059V32.6479H102.823V45.6407H104.324V42.2976L104.303 42.4685L107.36 39.505L112.449 45.6407H114.366L108.423 38.4708L114.427 32.6479Z" fill="#FF6900"/>
<path d="M117.97 44.2182V39.4905H125.173V38.0478H117.97V34.1051H126.116V32.6479H116.467V45.6407H126.116V44.2182H117.97Z" fill="#FF6900"/>
<path d="M138.586 32.6479H128.155V34.079H132.619V45.6407H134.122V34.079H138.586V32.6479Z" fill="#FF6900"/>
<path d="M145.788 45.7629C144.187 45.7629 142.278 45.1053 140.076 43.7959L140.87 42.5705C144.274 44.5983 146.149 44.4969 147.122 44.0566C147.995 43.6597 148.393 42.8659 148.47 42.3068C148.55 41.7101 148.738 40.3167 145.28 39.8387C142.93 39.5142 141.221 38.4598 140.705 37.0113C140.305 35.8961 140.674 34.6996 141.74 33.6393C144.573 30.8236 149.427 33.8768 149.632 34.0072L148.798 35.2066C148.759 35.1805 144.785 32.6862 142.822 34.6387C142.356 35.0993 141.861 35.8062 142.124 36.5449C142.444 37.4401 143.766 38.173 145.491 38.4135C148.759 38.8653 150.263 40.2384 149.958 42.4952C149.834 43.4135 149.185 44.7142 147.766 45.3631C147.17 45.6325 146.509 45.7687 145.788 45.7687V45.7629Z" fill="#FF6900"/>
<path d="M37.5805 34.7047V40.2494L31.8813 32.6479H30.9813C29.7973 32.6479 28.8369 33.5692 28.8369 34.7047V45.6377H29.7127C30.8967 45.6377 31.8572 44.7165 31.8572 43.5809V37.9928L37.5775 45.6377H38.4564C39.6403 45.6377 40.6007 44.7165 40.6007 43.5809V32.6479H39.7249C38.5409 32.6479 37.5805 33.5692 37.5805 34.7047Z" fill="#FF6900"/>
<path d="M23.4043 34.7047V40.0091C23.4043 41.5792 22.0391 42.8451 20.378 42.7466C18.8528 42.6568 17.696 41.3792 17.696 39.9134V32.6479H16.8202C15.6362 32.6479 14.6758 33.5692 14.6758 34.7047V40.0091C14.6758 41.2924 15.1258 42.4772 15.8839 43.4244H15.8869C15.896 43.4419 15.9111 43.4563 15.9232 43.4737C16.0259 43.5983 16.1316 43.7199 16.2464 43.8358C17.3185 44.9454 18.8559 45.6407 20.5562 45.6407C23.7999 45.6407 26.4366 43.1174 26.4366 40.0091V32.6479H25.5486C24.3647 32.6479 23.4043 33.5692 23.4043 34.7047Z" fill="#FF6900"/>
<path d="M49.6223 32.2886C45.3125 32.2886 42.999 35.3593 42.999 39.1427C42.999 42.926 45.1977 45.9967 49.6223 45.9967C54.0471 45.9967 56.2458 42.926 56.2458 39.1427C56.2458 35.3593 53.9323 32.2886 49.6223 32.2886ZM49.6223 42.7783C47.2786 42.7783 46.1098 41.1502 46.1098 39.1455C46.1098 37.1409 47.3361 35.5128 49.6223 35.5128C51.9087 35.5128 53.1349 37.1409 53.1349 39.1455C53.1349 41.1502 51.9691 42.7783 49.6223 42.7783Z" fill="#FF6900"/>
<path d="M88.6492 10.6285C88.5771 10.2578 88.2358 9.99121 87.8436 9.99121H84.2308H78.6195C78.4685 9.99121 78.3477 10.1071 78.3477 10.2519V13.7949C78.3477 13.9397 78.4685 14.0556 78.6195 14.0556H84.4248C84.587 14.0556 84.7206 14.1946 84.6962 14.3511C84.2043 17.7346 81.7821 20.5272 78.5289 21.6686C78.4202 21.7063 78.3477 21.8019 78.3477 21.912V25.4781C78.3477 25.649 78.5168 25.7764 78.6859 25.733C84.234 24.3511 88.4107 19.7017 88.8464 14.0556C88.8697 13.7311 88.8856 13.4037 88.8856 13.0735C88.8856 12.2392 88.804 11.4193 88.6471 10.6257L88.6492 10.6285Z" fill="#FF6900"/>
<path d="M87.8489 9.05569H83.9892C83.8864 9.05569 83.7963 8.99781 83.7507 8.91088C82.5305 6.63393 80.35 4.90736 77.7165 4.23239C77.5444 4.19177 77.3783 4.31931 77.3783 4.48727V25.3044C77.3783 25.7042 77.0641 26.0432 76.6503 26.0837C76.2305 26.1272 75.8047 26.1503 75.3728 26.1503C75.3335 26.1503 75.2943 26.1503 75.255 26.1503C75.107 26.1503 74.959 26.1503 74.8141 26.1417C74.7446 26.1417 74.6811 26.1417 74.6147 26.133C74.4788 26.1272 74.3429 26.1185 74.207 26.1098C74.1405 26.1098 74.0802 26.1011 74.0137 26.0953C73.917 26.0895 73.8264 26.0809 73.7298 26.0693C73.6936 26.0693 73.6603 26.0606 73.624 26.0548C73.4791 26.0402 73.3341 26.02 73.1922 25.9997C73.1499 25.9939 73.1015 25.9852 73.0593 25.9794C72.9233 25.9592 72.7905 25.936 72.6546 25.9128C72.6486 25.9128 72.6425 25.9128 72.6394 25.907C72.4854 25.8809 72.3314 25.8491 72.1774 25.8143C72.1683 25.8143 72.1623 25.8143 72.1592 25.8085C72.0204 25.7766 71.8814 25.7449 71.7455 25.71C71.7063 25.7014 71.6669 25.6927 71.6277 25.6781C71.5008 25.6464 71.377 25.6115 71.2502 25.5738C71.2351 25.5738 71.2169 25.5652 71.2019 25.5594C71.0539 25.516 70.9089 25.4667 70.7669 25.4203C70.4347 25.3102 70.1054 25.1857 69.7853 25.0496C69.6554 24.9945 69.5226 24.9395 69.3957 24.8787C68.9307 24.6671 68.4776 24.4267 68.0397 24.166C67.928 24.0993 67.8161 24.0299 67.7075 23.9603C67.4991 23.8299 67.2997 23.6909 67.1004 23.5489C66.9735 23.4562 66.8467 23.3635 66.7229 23.265C66.6292 23.1956 66.5416 23.1231 66.4511 23.0478C66.3513 22.9667 66.2517 22.8855 66.155 22.7986C66.0584 22.7146 65.9588 22.6307 65.8651 22.5437C65.5751 22.283 65.2973 22.0049 65.0345 21.7181C64.9681 21.6486 64.9077 21.5761 64.8442 21.5037C64.5876 21.214 64.3459 20.9127 64.1134 20.6028C64.062 20.5304 64.0107 20.4551 63.9594 20.3827C63.8959 20.2957 63.8355 20.2088 63.7781 20.119C63.7177 20.0321 63.6603 19.9423 63.603 19.8525C63.4882 19.6729 63.3794 19.4904 63.2768 19.305C63.2285 19.221 63.1801 19.137 63.1378 19.0529C62.9748 18.7488 62.8206 18.4388 62.6847 18.1231C62.6274 17.9927 62.57 17.8595 62.5186 17.7261C62.4884 17.6509 62.4583 17.5755 62.4311 17.4973C62.3556 17.2974 62.2862 17.0976 62.2197 16.8918C62.1955 16.8165 62.1713 16.7383 62.1501 16.6601C62.0868 16.4544 62.0294 16.243 61.9781 16.0286C61.9539 15.9214 61.9298 15.8171 61.9086 15.7099C61.8904 15.6288 61.8723 15.5448 61.8572 15.4637C61.8481 15.4231 61.8421 15.3826 61.8361 15.342C61.821 15.2609 61.8059 15.1798 61.7939 15.0986C61.7787 15.0175 61.7666 14.9335 61.7545 14.8496C61.7364 14.7192 61.7183 14.5888 61.7062 14.4556C61.6881 14.2875 61.6699 14.1195 61.6639 13.9486C61.6518 13.8414 61.6488 13.7342 61.6459 13.6241C61.6459 13.5923 61.6398 13.5575 61.6459 13.5256C61.6368 13.3779 61.6338 13.2273 61.6338 13.0795C61.6338 12.9057 61.6338 12.729 61.6459 12.5551C61.6459 12.5204 61.6459 12.4885 61.6519 12.4566C61.6519 12.4451 61.6519 12.4364 61.6519 12.4249C61.682 11.8165 61.7545 11.2168 61.8723 10.6317C61.9448 10.2638 62.2831 9.99721 62.6757 9.99721H72.0294C72.1804 9.99721 72.3012 10.1131 72.3012 10.258V13.8009C72.3012 13.9457 72.1774 14.0616 72.0294 14.0616H66.0947C65.9315 14.0616 65.7986 14.2006 65.8258 14.3541C65.8469 14.5019 65.8711 14.6438 65.8983 14.7916C65.9225 14.9335 65.9557 15.0755 65.992 15.2087C65.992 15.2145 65.992 15.2203 65.998 15.2232C66.0161 15.316 66.0403 15.4057 66.0705 15.4956C66.0856 15.5622 66.1068 15.6288 66.1279 15.6954C66.1641 15.8171 66.2033 15.9301 66.2456 16.0488C66.3271 16.2806 66.4209 16.5124 66.5235 16.7355C66.5899 16.886 66.6594 17.0338 66.7379 17.1786C66.8799 17.4509 67.0339 17.7146 67.2031 17.9695C67.5957 18.5692 68.0578 19.1167 68.5833 19.6092C69.0303 20.0321 69.5226 20.4116 70.0481 20.7418C70.0481 20.7418 70.0481 20.7418 70.0541 20.7418C70.4618 20.9968 70.8878 21.2227 71.3347 21.4168C71.3347 21.4168 71.3347 21.4168 71.3407 21.4168C71.3468 21.4168 71.3499 21.4168 71.3528 21.4168C71.4706 21.466 71.5885 21.5153 71.7063 21.5645C71.824 21.608 71.9448 21.6544 72.0656 21.6949C72.1865 21.7354 72.3042 21.7731 72.4281 21.8137C72.5519 21.8514 72.6757 21.8832 72.8026 21.9151C72.9747 21.9585 73.1438 21.8311 73.1438 21.6602V4.49021C73.1438 4.31931 72.9747 4.19177 72.8026 4.23524C70.1719 4.91021 67.9883 6.63678 66.7712 8.91373C66.7258 9.00065 66.6322 9.05863 66.5326 9.05863H62.6727C62.4854 9.05863 62.3495 8.88194 62.4129 8.71094C64.0559 4.2526 68.1514 0.90384 73.1438 0.15931C73.8324 0.0550233 74.5423 0.00292969 75.261 0.00292969C75.9798 0.00292969 76.6897 0.0579672 77.3812 0.162254C82.3737 0.903839 86.4687 4.2526 88.1118 8.71094C88.1754 8.88194 88.0397 9.05863 87.8521 9.05863L87.8489 9.05569Z" fill="#FF6900"/>
<path d="M11.4321 32.6479C10.2451 32.6479 9.2847 33.5691 9.2847 34.7076V40.0553C9.2847 40.09 9.27569 40.1219 9.27262 40.1567C9.27262 40.1799 9.27569 40.2031 9.27569 40.2262C9.27569 42.7523 7.46954 44.867 5.03223 45.461C5.48827 45.571 5.95947 45.6347 6.44869 45.6347C9.66219 45.6347 12.2747 43.1348 12.2747 40.0525V32.6421H11.4291L11.4321 32.6479Z" fill="#FF6900"/>
<path d="M8.65293 39.8003C8.65293 39.7771 8.64996 39.7539 8.64996 39.7308C8.59261 41.1821 7.35424 42.3467 5.82604 42.3467C4.64809 42.3467 3.63636 41.6543 3.20745 40.6693C2.93873 40.0494 2.33459 39.6265 1.63696 39.6265H0C0 42.2394 1.88162 44.4266 4.40957 45.035C6.84689 44.4382 8.65293 42.3235 8.65293 39.8003Z" fill="#FF6900"/>
</g>
</svg>
