<svg width="24" height="24" viewBox="0 0 24 24" fill="none" xmlns="http://www.w3.org/2000/svg">
<rect width="24" height="24" rx="4" transform="matrix(0 1 1 0 0 0)" fill="#F1F1F1"/>
<path d="M19.125 12C19.125 12.6213 18.6213 13.125 18 13.125C17.3787 13.125 16.875 12.6213 16.875 12C16.875 11.3787 17.3787 10.875 18 10.875C18.6213 10.875 19.125 11.3787 19.125 12Z" fill="#474543"/>
<path d="M13.125 12C13.125 12.6213 12.6213 13.125 12 13.125C11.3787 13.125 10.875 12.6213 10.875 12C10.875 11.3787 11.3787 10.875 12 10.875C12.6213 10.875 13.125 11.3787 13.125 12Z" fill="#474543"/>
<path d="M7.125 12C7.125 12.6213 6.62132 13.125 6 13.125C5.37868 13.125 4.875 12.6213 4.875 12C4.875 11.3787 5.37868 10.875 6 10.875C6.62132 10.875 7.125 11.3787 7.125 12Z" fill="#474543"/>
<path d="M19.125 12C19.125 12.6213 18.6213 13.125 18 13.125C17.3787 13.125 16.875 12.6213 16.875 12C16.875 11.3787 17.3787 10.875 18 10.875C18.6213 10.875 19.125 11.3787 19.125 12Z" stroke="#474543" strokeWidth="0.4"/>
<path d="M13.125 12C13.125 12.6213 12.6213 13.125 12 13.125C11.3787 13.125 10.875 12.6213 10.875 12C10.875 11.3787 11.3787 10.875 12 10.875C12.6213 10.875 13.125 11.3787 13.125 12Z" stroke="#474543" strokeWidth="0.4"/>
<path d="M7.125 12C7.125 12.6213 6.62132 13.125 6 13.125C5.37868 13.125 4.875 12.6213 4.875 12C4.875 11.3787 5.37868 10.875 6 10.875C6.62132 10.875 7.125 11.3787 7.125 12Z" stroke="#474543" strokeWidth="0.4"/>
</svg>
