<svg width="29" height="22" viewBox="0 0 29 22" fill="none" xmlns="http://www.w3.org/2000/svg">
<rect x="0.5" y="0.5" width="28" height="21" rx="3.5" fill="white"/>
<rect x="0.5" y="0.5" width="28" height="21" rx="3.5" stroke="#ECECEC"/>
<path d="M4.8335 8.55566H9.66683V14.6668H4.8335V8.55566Z" fill="white"/>
<path d="M13.2917 11.0036L10.8764 8V14L13.2917 11.0036ZM8.46121 11.0036L10.8764 8H6.04615L8.46121 11.0036ZM3.625 11.0036L6.04615 14V8L3.625 11.0036ZM8.46121 11.0036L6.04615 14H10.8764L8.46121 11.0036Z" fill="#DB0011"/>
<path d="M16.621 11.2792H15.2069V12.9213H14.5V9.07542H15.2069V10.6528H16.621V9.07542H17.3279V12.9216H16.621V11.2792ZM19.0357 12.997C18.3287 12.997 17.7502 12.6624 17.7409 11.7437H18.4478C18.4572 12.1543 18.659 12.4027 19.0445 12.4027C19.3289 12.4027 19.6598 12.2299 19.6598 11.8542C19.6598 11.5518 19.4396 11.4654 19.0725 11.3332L18.8338 11.2575C18.3196 11.0847 17.8055 10.847 17.8055 10.1556C17.8055 9.30221 18.4849 9.01042 19.1002 9.01042C19.7337 9.01042 20.2847 9.26957 20.2936 10.1233H19.5864C19.5589 9.77773 19.3843 9.5748 19.0538 9.5748C18.7877 9.5748 18.5303 9.73934 18.5303 10.0827C18.5303 10.3635 18.7506 10.4502 19.2098 10.6229L19.4853 10.7203C20.0453 10.926 20.4036 11.1525 20.4036 11.8008C20.3942 12.6652 19.6782 13 19.0354 13L19.0357 12.997ZM20.7989 9.08638H21.9374C22.1486 9.07541 22.3691 9.08638 22.5803 9.12971C22.9751 9.23776 23.2781 9.54024 23.2781 10.0588C23.2781 10.5557 23.0119 10.8042 22.6262 10.9232C23.069 11.0206 23.3953 11.2797 23.3953 11.8523C23.3953 12.7299 22.6607 12.9218 22.0915 12.9218H20.8061L20.7989 9.08638ZM21.9374 10.6852C22.2498 10.6852 22.5709 10.6095 22.5709 10.1641C22.5709 9.76429 22.2773 9.65625 21.9836 9.65625H21.4878V10.6827L21.9374 10.6852ZM22.0018 12.349C22.3323 12.349 22.6537 12.2626 22.6537 11.7868C22.6537 11.311 22.3782 11.2246 22.0384 11.2246H21.4783V12.3481L22.0018 12.349ZM25.2338 12.9973C24.178 12.9973 23.7095 12.2086 23.7095 11.031C23.7095 9.85342 24.233 9 25.2704 9C25.9223 9 26.5558 9.34554 26.5742 10.2099H25.8396C25.8028 9.82106 25.5825 9.62663 25.2702 9.62663C24.6274 9.62663 24.4346 10.437 24.4346 11.0527C24.4346 11.6683 24.6274 12.3816 25.2427 12.3816C25.5643 12.3816 25.8028 12.1759 25.8487 11.7873H26.5833C26.5099 12.6731 25.913 12.9973 25.2315 12.9973H25.2338Z" fill="black"/>
</svg>
