<svg width="25" height="24" viewBox="0 0 25 24" fill="none" xmlns="http://www.w3.org/2000/svg">
<g id="heroicons-solid/circle-stack">
<g id="Vector">
<path d="M21.5781 6.375C21.5781 9.06739 17.5487 11.25 12.5781 11.25C7.60756 11.25 3.57812 9.06739 3.57812 6.375C3.57812 3.68261 7.60756 1.5 12.5781 1.5C17.5487 1.5 21.5781 3.68261 21.5781 6.375Z" fill="#FF6900"/>
<path d="M12.5781 12.75C15.2633 12.75 17.7686 12.1637 19.6565 11.1411C20.3465 10.7673 21.0029 10.3043 21.5528 9.75674C21.5696 9.87831 21.5781 10.0011 21.5781 10.125C21.5781 12.8174 17.5487 15 12.5781 15C7.60756 15 3.57812 12.8174 3.57812 10.125C3.57812 10.0011 3.58666 9.8783 3.60342 9.75674C4.15335 10.3043 4.80975 10.7673 5.49974 11.1411C7.38761 12.1637 9.89294 12.75 12.5781 12.75Z" fill="#FF6900"/>
<path d="M12.5781 16.5C15.2633 16.5 17.7686 15.9137 19.6565 14.8911C20.3465 14.5173 21.0029 14.0543 21.5528 13.5067C21.5696 13.6283 21.5781 13.7511 21.5781 13.875C21.5781 16.5674 17.5487 18.75 12.5781 18.75C7.60756 18.75 3.57812 16.5674 3.57812 13.875C3.57812 13.7511 3.58666 13.6283 3.60342 13.5067C4.15335 14.0543 4.80975 14.5173 5.49974 14.8911C7.38761 15.9137 9.89294 16.5 12.5781 16.5Z" fill="#FF6900"/>
<path d="M12.5781 20.25C15.2633 20.25 17.7686 19.6637 19.6565 18.6411C20.3465 18.2673 21.0029 17.8043 21.5528 17.2567C21.5696 17.3783 21.5781 17.5011 21.5781 17.625C21.5781 20.3174 17.5487 22.5 12.5781 22.5C7.60756 22.5 3.57812 20.3174 3.57812 17.625C3.57812 17.5011 3.58666 17.3783 3.60342 17.2567C4.15335 17.8043 4.80975 18.2673 5.49974 18.6411C7.38761 19.6637 9.89294 20.25 12.5781 20.25Z" fill="#FF6900"/>
</g>
</g>
</svg>
