<svg width="32" height="32" viewBox="0 0 32 32" fill="none" xmlns="http://www.w3.org/2000/svg">
<g id="vuesax/bold/close-circle">
<g id="close-circle">
<path id="Vector" d="M16 2.66699C8.65335 2.66699 2.66669 8.65366 2.66669 16.0003C2.66669 23.347 8.65335 29.3337 16 29.3337C23.3467 29.3337 29.3334 23.347 29.3334 16.0003C29.3334 8.65366 23.3467 2.66699 16 2.66699ZM20.48 19.067C20.8667 19.4537 20.8667 20.0937 20.48 20.4803C20.28 20.6803 20.0267 20.7737 19.7734 20.7737C19.52 20.7737 19.2667 20.6803 19.0667 20.4803L16 17.4137L12.9334 20.4803C12.7334 20.6803 12.48 20.7737 12.2267 20.7737C11.9734 20.7737 11.72 20.6803 11.52 20.4803C11.1334 20.0937 11.1334 19.4537 11.52 19.067L14.5867 16.0003L11.52 12.9337C11.1334 12.547 11.1334 11.907 11.52 11.5203C11.9067 11.1337 12.5467 11.1337 12.9334 11.5203L16 14.587L19.0667 11.5203C19.4534 11.1337 20.0934 11.1337 20.48 11.5203C20.8667 11.907 20.8667 12.547 20.48 12.9337L17.4134 16.0003L20.48 19.067Z" fill="#EF4444"/>
</g>
</g>
</svg>
