<svg width="26" height="26" viewBox="0 0 26 26" fill="none" xmlns="http://www.w3.org/2000/svg">
<rect x="0.625" y="0.625" width="24.75" height="24.75" rx="12.375" fill="url(#paint0_linear_0_299)"/>
<rect x="0.625" y="0.625" width="24.75" height="24.75" rx="12.375" stroke="#E5E6E8" stroke-width="0.75"/>
<rect opacity="0.4" x="1" y="3.25" width="24" height="20.25" rx="1.5" fill="white"/>
<path fill-rule="evenodd" clip-rule="evenodd" d="M16.6667 7.33965C16.5773 7.33546 16.4873 7.33334 16.3969 7.33334C13.2673 7.33334 10.7302 9.8704 10.7302 13C10.7302 16.1296 13.2673 18.6667 16.3969 18.6667C16.4873 18.6667 16.5773 18.6646 16.6667 18.6604V7.33965Z" fill="#F07A37"/>
<path fill-rule="evenodd" clip-rule="evenodd" d="M13.6984 6C13.8102 6 13.9213 6.00262 14.0318 6.0078V6.76506C11.5174 7.71938 9.73029 10.151 9.73029 13C9.73029 15.849 11.5174 18.2806 14.0318 19.235V19.9922C13.9213 19.9974 13.8102 20 13.6984 20C9.83243 20 6.69843 16.866 6.69843 13C6.69843 9.13401 9.83243 6 13.6984 6Z" fill="#F07A37"/>
<path fill-rule="evenodd" clip-rule="evenodd" d="M19.3016 8.67151C19.2332 8.66831 19.1644 8.66669 19.0952 8.66669C16.702 8.66669 14.7619 10.6068 14.7619 13C14.7619 15.3933 16.702 17.3334 19.0952 17.3334C19.1644 17.3334 19.2332 17.3317 19.3016 17.3285V8.67151Z" fill="#F07A37"/>
<defs>
<linearGradient id="paint0_linear_0_299" x1="13" y1="10" x2="13" y2="25" gradientUnits="userSpaceOnUse">
<stop stop-color="white"/>
<stop offset="1" stop-color="#EDEDED"/>
</linearGradient>
</defs>
</svg>
