<svg width="16" height="17" viewBox="0 0 16 17" fill="none" xmlns="http://www.w3.org/2000/svg">
<g clipPath="url(#clip0_807_62514)">
<rect y="0.5" width="16" height="16" rx="8" fill="white"/>
<mask id="mask0_807_62514" style="mask-type:alpha" maskUnits="userSpaceOnUse" x="0" y="0" width="16" height="17">
<rect y="0.5" width="16" height="16" fill="#C4C4C4"/>
</mask>
<g mask="url(#mask0_807_62514)">
<path d="M20.0948 0.5H-4.28613V16.5H20.0948V0.5Z" fill="#012169"/>
<path d="M5.80434 6.40952V5.65714L-2.12423 0.5H-4.28613V2.11905L2.3091 6.40952H5.80434Z" fill="white"/>
<path d="M5.80434 10.5903H2.45196L-4.28613 14.9665V16.4999H-1.98137L5.80434 11.4284V10.5903Z" fill="white"/>
<path d="M17.9808 0.5L9.99512 5.68571V6.40952H13.5475L20.0951 2.14762V0.5H17.9808Z" fill="white"/>
<path d="M9.99512 10.5903V11.3999L17.8475 16.4999H20.0951V14.938L13.4142 10.5903H9.99512Z" fill="white"/>
<path d="M20.0948 6.40952H9.99482V0.5H5.80435V6.40952H-4.28613V10.5905H5.80435V16.5H9.99482V10.5905H20.0948V6.40952Z" fill="white"/>
<path d="M20.0948 7.23333H9.16625V0.5H6.64244V7.23333H-4.28613V9.75714H6.64244V16.5H9.16625V9.75714H20.0948V7.23333Z" fill="#C8102E"/>
<path d="M4.96625 6.40952L-4.12423 0.5H-4.28613V1.41429L3.39482 6.40952H4.96625Z" fill="#C8102E"/>
<path d="M5.80434 10.5903H4.24244L-4.28613 16.138V16.4999H-3.27661L5.80434 10.5903Z" fill="#C8102E"/>
<path d="M10.6904 10.5903L19.7809 16.4999H20.0952V15.6808L12.2619 10.5903H10.6904Z" fill="#C8102E"/>
<path d="M19.0761 0.5L9.99512 6.4V6.40952H11.557L20.0951 0.861905V0.5H19.0761Z" fill="#C8102E"/>
</g>
</g>
<defs>
<clipPath id="clip0_807_62514">
<rect y="0.5" width="16" height="16" rx="8" fill="white"/>
</clipPath>
</defs>
</svg>
