<svg width="32" height="32" viewBox="0 0 32 32" fill="none" xmlns="http://www.w3.org/2000/svg">
<path d="M29.014 21.227L20.4806 5.86699C19.334 3.80033 17.7473 2.66699 16.0006 2.66699C14.254 2.66699 12.6673 3.80033 11.5206 5.86699L2.98731 21.227C1.90731 23.187 1.78731 25.067 2.65397 26.547C3.52064 28.027 5.22731 28.8403 7.46731 28.8403H24.534C26.774 28.8403 28.4806 28.027 29.3473 26.547C30.214 25.067 30.094 23.1737 29.014 21.227ZM15.0006 12.0003C15.0006 11.4537 15.454 11.0003 16.0006 11.0003C16.5473 11.0003 17.0006 11.4537 17.0006 12.0003V18.667C17.0006 19.2137 16.5473 19.667 16.0006 19.667C15.454 19.667 15.0006 19.2137 15.0006 18.667V12.0003ZM16.9473 23.6137C16.8806 23.667 16.814 23.7203 16.7473 23.7737C16.6673 23.827 16.5873 23.867 16.5073 23.8937C16.4273 23.9337 16.3473 23.9603 16.254 23.9737C16.174 23.987 16.0806 24.0003 16.0006 24.0003C15.9206 24.0003 15.8273 23.987 15.734 23.9737C15.654 23.9603 15.574 23.9337 15.494 23.8937C15.414 23.867 15.334 23.827 15.254 23.7737C15.1873 23.7203 15.1206 23.667 15.054 23.6137C14.814 23.3603 14.6673 23.0137 14.6673 22.667C14.6673 22.3203 14.814 21.9737 15.054 21.7203C15.1206 21.667 15.1873 21.6137 15.254 21.5603C15.334 21.507 15.414 21.467 15.494 21.4403C15.574 21.4003 15.654 21.3737 15.734 21.3603C15.9073 21.3203 16.094 21.3203 16.254 21.3603C16.3473 21.3737 16.4273 21.4003 16.5073 21.4403C16.5873 21.467 16.6673 21.507 16.7473 21.5603C16.814 21.6137 16.8806 21.667 16.9473 21.7203C17.1873 21.9737 17.334 22.3203 17.334 22.667C17.334 23.0137 17.1873 23.3603 16.9473 23.6137Z" fill="#FBBF24"/>
</svg>
