<svg width="18" height="19" viewBox="0 0 18 19" fill="none" xmlns="http://www.w3.org/2000/svg">
<path d="M6.74959 13.8133C6.44209 13.8133 6.18709 13.5583 6.18709 13.2508V10.1083L5.64709 10.6483C5.42959 10.8658 5.06959 10.8658 4.85209 10.6483C4.63459 10.4308 4.63459 10.0708 4.85209 9.85335L6.35209 8.35335C6.50959 8.19585 6.75709 8.14335 6.96709 8.23335C7.17709 8.31585 7.31209 8.52585 7.31209 8.75085V13.2508C7.31209 13.5583 7.05709 13.8133 6.74959 13.8133Z" fill="white"/>
<path d="M8.24959 10.8126C8.10709 10.8126 7.96459 10.7601 7.85209 10.6476L6.35209 9.14758C6.13459 8.93008 6.13459 8.57008 6.35209 8.35258C6.56959 8.13508 6.92959 8.13508 7.14709 8.35258L8.64709 9.85258C8.86459 10.0701 8.86459 10.4301 8.64709 10.6476C8.53459 10.7601 8.39209 10.8126 8.24959 10.8126Z" fill="white"/>
<path d="M11.25 17.5625H6.75C2.6775 17.5625 0.9375 15.8225 0.9375 11.75V7.25C0.9375 3.1775 2.6775 1.4375 6.75 1.4375H10.5C10.8075 1.4375 11.0625 1.6925 11.0625 2C11.0625 2.3075 10.8075 2.5625 10.5 2.5625H6.75C3.2925 2.5625 2.0625 3.7925 2.0625 7.25V11.75C2.0625 15.2075 3.2925 16.4375 6.75 16.4375H11.25C14.7075 16.4375 15.9375 15.2075 15.9375 11.75V8C15.9375 7.6925 16.1925 7.4375 16.5 7.4375C16.8075 7.4375 17.0625 7.6925 17.0625 8V11.75C17.0625 15.8225 15.3225 17.5625 11.25 17.5625Z" fill="white"/>
<path d="M16.5 8.56335H13.5C10.935 8.56335 9.9375 7.56585 9.9375 5.00085V2.00085C9.9375 1.77585 10.0725 1.56585 10.2825 1.48335C10.4925 1.39335 10.7325 1.44585 10.8975 1.60335L16.8975 7.60335C17.055 7.76085 17.1075 8.00835 17.0175 8.21835C16.9275 8.42835 16.725 8.56335 16.5 8.56335ZM11.0625 3.35835V5.00085C11.0625 6.93585 11.565 7.43835 13.5 7.43835H15.1425L11.0625 3.35835Z" fill="white"/>
</svg>
