<svg width="16" height="16" viewBox="0 0 16 16" fill="none" xmlns="http://www.w3.org/2000/svg">
<path fillRule="evenodd" clipRule="evenodd" d="M10.3445 0.958172C11.1223 0.858708 11.9093 1.17678 12.7089 1.92915L12.7098 1.93002C13.5121 2.68875 13.8773 3.45841 13.8225 4.24233C13.7696 4.99983 13.3304 5.64097 12.8297 6.17001M12.8297 6.17001L7.35907 11.9605C7.20485 12.1284 6.99719 12.2706 6.80032 12.3759C6.60093 12.4825 6.37028 12.5738 6.15376 12.6122L6.15043 12.6128L4.00453 12.9794C3.48415 13.0691 2.98515 12.939 2.62968 12.6019C2.27471 12.2653 2.11786 11.7744 2.17597 11.2514L2.17614 11.2499L2.42387 9.08054C2.45264 8.86474 2.53279 8.63122 2.62726 8.42864C2.72139 8.22679 2.84983 8.01276 3.00182 7.85096L3.00279 7.84993L8.47613 2.05659C8.97715 1.52734 9.59284 1.05429 10.3445 0.958172M9.20268 2.7437C9.20259 2.74379 9.20276 2.74362 9.20268 2.7437L3.73066 8.53564C3.73055 8.53576 3.73078 8.53552 3.73066 8.53564C3.67602 8.59395 3.60095 8.70678 3.53355 8.85129C3.46738 8.99319 3.42763 9.12446 3.41572 9.20884L3.16985 11.3618C3.16982 11.3621 3.1698 11.3623 3.16977 11.3625C3.14143 11.6192 3.22119 11.7847 3.3178 11.8763C3.414 11.9676 3.58166 12.0375 3.83462 11.9939L3.83539 11.9938L5.98013 11.6274C6.06364 11.6123 6.19232 11.567 6.32883 11.494C6.46722 11.42 6.57132 11.3402 6.62343 11.2831L6.6294 11.2765L12.1028 5.48326C12.5486 5.01236 12.7963 4.58326 12.825 4.1726C12.8518 3.78829 12.6938 3.29146 12.0232 2.6571C11.3564 2.02977 10.8534 1.90123 10.4713 1.95009C10.063 2.0023 9.64822 2.27312 9.20268 2.7437Z" fill="#FF6900"/>
<path fillRule="evenodd" clipRule="evenodd" d="M7.85011 2.87224C8.12296 2.82973 8.37861 3.01646 8.42112 3.28931C8.67254 4.90306 9.98222 6.13813 11.6105 6.30213C11.8853 6.32981 12.0856 6.57497 12.0579 6.84972C12.0302 7.12447 11.7851 7.32477 11.5103 7.2971C9.43194 7.08777 7.75496 5.50951 7.43304 3.44325C7.39053 3.1704 7.57726 2.91475 7.85011 2.87224Z" fill="#FF6900"/>
<path fillRule="evenodd" clipRule="evenodd" d="M1.5 14.667C1.5 14.3908 1.72386 14.167 2 14.167H14C14.2761 14.167 14.5 14.3908 14.5 14.667C14.5 14.9431 14.2761 15.167 14 15.167H2C1.72386 15.167 1.5 14.9431 1.5 14.667Z" fill="#FF6900"/>
</svg>
