<svg width="16" height="16" viewBox="0 0 16 16" fill="none" xmlns="http://www.w3.org/2000/svg">
<g id="vuesax/linear/export">
<g id="export">
<path id="Vector (Stroke)" fillRule="evenodd" clipRule="evenodd" d="M14.4869 1.51315C14.6821 1.70841 14.6821 2.02499 14.4869 2.22025L9.02021 7.68692C8.82495 7.88218 8.50837 7.88218 8.3131 7.68692C8.11784 7.49166 8.11784 7.17507 8.3131 6.97981L13.7798 1.51315C13.975 1.31788 14.2916 1.31788 14.4869 1.51315Z" fill="#FF6900" stroke="#FF6900" strokeWidth="0.5" strokeLinecap="round" strokeLinejoin="round"/>
<path id="Vector (Stroke)_2" fillRule="evenodd" clipRule="evenodd" d="M10.9661 1.3335C10.9661 1.05735 11.19 0.833496 11.4661 0.833496H14.6661C14.9423 0.833496 15.1661 1.05735 15.1661 1.3335V4.5335C15.1661 4.80964 14.9423 5.0335 14.6661 5.0335C14.39 5.0335 14.1661 4.80964 14.1661 4.5335V1.8335H11.4661C11.19 1.8335 10.9661 1.60964 10.9661 1.3335Z" fill="#FF6900" stroke="#FF6900" strokeWidth="0.5" strokeLinecap="round" strokeLinejoin="round"/>
<path id="Vector (Stroke)_3" fillRule="evenodd" clipRule="evenodd" d="M2.06311 2.06328C2.95275 1.17363 4.28401 0.833496 6 0.833496H7.33333C7.60947 0.833496 7.83333 1.05735 7.83333 1.3335C7.83333 1.60964 7.60947 1.8335 7.33333 1.8335H6C4.38264 1.8335 3.38057 2.16003 2.77022 2.77038C2.15986 3.38074 1.83333 4.38281 1.83333 6.00016V10.0002C1.83333 11.6175 2.15986 12.6196 2.77022 13.2299C3.38057 13.8403 4.38264 14.1668 6 14.1668H10C11.6173 14.1668 12.6194 13.8403 13.2298 13.2299C13.8401 12.6196 14.1667 11.6175 14.1667 10.0002V8.66683C14.1667 8.39069 14.3905 8.16683 14.6667 8.16683C14.9428 8.16683 15.1667 8.39069 15.1667 8.66683V10.0002C15.1667 11.7161 14.8265 13.0474 13.9369 13.937C13.0472 14.8267 11.716 15.1668 10 15.1668H6C4.28401 15.1668 2.95275 14.8267 2.06311 13.937C1.17346 13.0474 0.833328 11.7161 0.833328 10.0002V6.00016C0.833328 4.28418 1.17346 2.95292 2.06311 2.06328Z" fill="#FF6900" stroke="#FF6900" strokeWidth="0.5" strokeLinecap="round" strokeLinejoin="round"/>
</g>
</g>
</svg>
