<svg width="20" height="20" viewBox="0 0 20 20" fill="none" xmlns="http://www.w3.org/2000/svg">
<g filter="url(#filter0_i_833_20223)">
<path fillRule="evenodd" clipRule="evenodd" d="M9.99987 7.64176C8.69505 7.64176 7.64154 8.69528 7.64154 10.0001C7.64154 11.3049 8.69505 12.3584 9.99987 12.3584C11.3047 12.3584 12.3582 11.3049 12.3582 10.0001C12.3582 8.69528 11.3047 7.64176 9.99987 7.64176ZM6.39154 10.0001C6.39154 8.00492 8.00469 6.39176 9.99987 6.39176C11.995 6.39176 13.6082 8.00492 13.6082 10.0001C13.6082 11.9953 11.995 13.6084 9.99987 13.6084C8.00469 13.6084 6.39154 11.9953 6.39154 10.0001Z" fill="#8A8785"/>
<path fillRule="evenodd" clipRule="evenodd" d="M1.88112 7.49757C3.87355 4.3656 6.79322 2.4751 9.99987 2.4751C13.2067 2.4751 16.1264 4.36576 18.1189 7.49798C18.573 8.20993 18.779 9.12189 18.779 9.99593C18.779 10.87 18.573 11.7819 18.1189 12.4939C16.1264 15.6261 13.2067 17.5168 9.99987 17.5168C6.79308 17.5168 3.87329 15.6261 1.88085 12.4939C1.42671 11.7819 1.2207 10.87 1.2207 9.99593C1.2207 9.12173 1.42679 8.20958 1.88112 7.49757ZM9.99987 3.7251C7.32333 3.7251 4.75978 5.3011 2.93555 8.16888L2.93503 8.1697C2.63954 8.63263 2.4707 9.2953 2.4707 9.99593C2.4707 10.6966 2.63954 11.3592 2.93503 11.8222L2.93555 11.823C4.75978 14.6908 7.32333 16.2668 9.99987 16.2668C12.6764 16.2668 15.24 14.6908 17.0642 11.823L17.0647 11.8222C17.3602 11.3592 17.529 10.6966 17.529 9.99593C17.529 9.2953 17.3602 8.63263 17.0647 8.1697L17.0642 8.16888C15.24 5.3011 12.6764 3.7251 9.99987 3.7251Z" fill="#8A8785"/>
</g>
<defs>
<filter id="filter0_i_833_20223" x="1.2207" y="2.4751" width="17.5586" height="19.0417" filterUnits="userSpaceOnUse" color-interpolation-filters="sRGB">
<feFlood flood-opacity="0" result="BackgroundImageFix"/>
<feBlend mode="normal" in="SourceGraphic" in2="BackgroundImageFix" result="shape"/>
<feColorMatrix in="SourceAlpha" type="matrix" values="0 0 0 0 0 0 0 0 0 0 0 0 0 0 0 0 0 0 127 0" result="hardAlpha"/>
<feOffset dy="4"/>
<feGaussianBlur stdDeviation="2"/>
<feComposite in2="hardAlpha" operator="arithmetic" k2="-1" k3="1"/>
<feColorMatrix type="matrix" values="0 0 0 0 0 0 0 0 0 0 0 0 0 0 0 0 0 0 0.25 0"/>
<feBlend mode="normal" in2="shape" result="effect1_innerShadow_833_20223"/>
</filter>
</defs>
</svg>
