<svg width="32" height="32" viewBox="0 0 32 32" fill="none" xmlns="http://www.w3.org/2000/svg">
<path d="M16 2.66602C8.65329 2.66602 2.66663 8.65268 2.66663 15.9993C2.66663 23.346 8.65329 29.3327 16 29.3327C23.3466 29.3327 29.3333 23.346 29.3333 15.9993C29.3333 8.65268 23.3466 2.66602 16 2.66602ZM20.48 19.066C20.8666 19.4527 20.8666 20.0927 20.48 20.4793C20.28 20.6793 20.0266 20.7727 19.7733 20.7727C19.52 20.7727 19.2666 20.6793 19.0666 20.4793L16 17.4127L12.9333 20.4793C12.7333 20.6793 12.48 20.7727 12.2266 20.7727C11.9733 20.7727 11.72 20.6793 11.52 20.4793C11.1333 20.0927 11.1333 19.4527 11.52 19.066L14.5866 15.9993L11.52 12.9327C11.1333 12.546 11.1333 11.906 11.52 11.5194C11.9066 11.1327 12.5466 11.1327 12.9333 11.5194L16 14.586L19.0666 11.5194C19.4533 11.1327 20.0933 11.1327 20.48 11.5194C20.8666 11.906 20.8666 12.546 20.48 12.9327L17.4133 15.9993L20.48 19.066Z" fill="white"/>
</svg>
