<svg width="36" height="24" viewBox="0 0 36 24" fill="none" xmlns="http://www.w3.org/2000/svg">
<mask id="mask0_1345_37761" style="mask-type:alpha" maskUnits="userSpaceOnUse" x="0" y="0" width="36" height="24">
<rect width="36" height="24" fill="#C4C4C4"/>
</mask>
<g mask="url(#mask0_1345_37761)">
<path d="M36.5714 18.4643H0V20.3071H36.5714V18.4643Z" fill="#B22234"/>
<path d="M17.0215 0V0.921428V1.84286H36.5715V0H17.0215Z" fill="#B22234"/>
<path d="M36.5715 1.84283H17.0215V3.68569H36.5715V1.84283Z" fill="white"/>
<path d="M36.5715 3.69287H17.0215V5.53573H36.5715V3.69287Z" fill="#B22234"/>
<path d="M36.5715 5.53571H17.0215V7.37856H36.5715V5.53571Z" fill="white"/>
<path d="M36.5715 7.38574H17.0215V9.2286H36.5715V7.38574Z" fill="#B22234"/>
<path d="M36.5715 9.22858H17.0215V11.0714H36.5715V9.22858Z" fill="white"/>
<path d="M36.5715 11.0786H17.0215V12.9214H36.5715V11.0786Z" fill="#B22234"/>
<path d="M36.5714 12.9214H0V14.7643H36.5714V12.9214Z" fill="white"/>
<path d="M36.5714 14.7714H0V16.6143H36.5714V14.7714Z" fill="#B22234"/>
<path d="M36.5714 20.3071H0V22.15H36.5714V20.3071Z" fill="white"/>
<path d="M36.5714 22.1572H0V24H36.5714V22.1572Z" fill="#B22234"/>
<path d="M0 0V0.921428V1.84286V12.9214H17.0214V1.84286V0.921428V0H0Z" fill="#3C3B6E"/>
<path d="M1.7714 1.46426L1.91425 1.88569H2.35711C2.41425 1.88569 2.43568 1.95711 2.39283 1.99283L2.03568 2.25711L2.1714 2.67854C2.18568 2.73569 2.12854 2.77854 2.07854 2.74283L1.7214 2.48569L1.36425 2.74283C1.31425 2.77854 1.25711 2.72854 1.2714 2.67854L1.40711 2.25711L1.04997 1.99283C1.00711 1.95711 1.02854 1.88569 1.08568 1.88569H1.52854L1.6714 1.46426C1.67854 1.41426 1.74997 1.41426 1.7714 1.46426Z" fill="white"/>
<path d="M1.7714 3.65711L1.91425 4.07854H2.35711C2.41425 4.07854 2.43568 4.14997 2.39283 4.18569L2.03568 4.44997L2.1714 4.8714C2.18568 4.92854 2.12854 4.9714 2.07854 4.93569L1.7214 4.67854L1.36425 4.93569C1.31425 4.9714 1.25711 4.9214 1.2714 4.8714L1.40711 4.44997L1.04997 4.18569C1.00711 4.14997 1.02854 4.07854 1.08568 4.07854H1.52854L1.6714 3.65711C1.67854 3.59997 1.74997 3.59997 1.7714 3.65711Z" fill="white"/>
<path d="M1.7714 5.8428L1.91425 6.26423H2.35711C2.41425 6.26423 2.43568 6.33565 2.39283 6.37137L2.03568 6.63565L2.1714 7.05708C2.18568 7.11423 2.12854 7.15708 2.07854 7.12137L1.7214 6.86423L1.36425 7.12137C1.31425 7.15708 1.25711 7.10708 1.2714 7.05708L1.40711 6.63565L1.04997 6.37137C1.00711 6.33565 1.02854 6.26423 1.08568 6.26423H1.52854L1.6714 5.8428C1.67854 5.7928 1.74997 5.7928 1.7714 5.8428Z" fill="white"/>
<path d="M1.7714 8.03565L1.91425 8.45708H2.35711C2.41425 8.45708 2.43568 8.52851 2.39283 8.56423L2.03568 8.82851L2.1714 9.24994C2.18568 9.30708 2.12854 9.34994 2.07854 9.31423L1.7214 9.05708L1.36425 9.31423C1.31425 9.34994 1.25711 9.29994 1.2714 9.24994L1.40711 8.82851L1.04997 8.56423C1.00711 8.52851 1.02854 8.45708 1.08568 8.45708H1.52854L1.6714 8.03565C1.67854 7.97851 1.74997 7.97851 1.7714 8.03565Z" fill="white"/>
<path d="M1.7714 10.2285L1.91425 10.65H2.35711C2.41425 10.65 2.43568 10.7214 2.39283 10.7571L2.03568 11.0214L2.1714 11.4428C2.18568 11.5 2.12854 11.5428 2.07854 11.5071L1.7214 11.25L1.36425 11.5071C1.31425 11.5428 1.25711 11.4928 1.2714 11.4428L1.40711 11.0214L1.04997 10.7571C1.00711 10.7214 1.02854 10.65 1.08568 10.65H1.52854L1.6714 10.2285C1.67854 10.1714 1.74997 10.1714 1.7714 10.2285Z" fill="white"/>
<path d="M3.47159 2.5428L3.61445 2.96422H4.05731C4.11445 2.96422 4.13588 3.03565 4.09302 3.07137L3.73588 3.33565L3.87159 3.75708C3.88588 3.81422 3.82874 3.85708 3.77874 3.82137L3.42159 3.56422L3.06445 3.82137C3.01445 3.85708 2.95731 3.80708 2.97159 3.75708L3.10731 3.33565L2.75016 3.07137C2.70731 3.03565 2.72874 2.96422 2.78588 2.96422H3.22874L3.37159 2.5428C3.37874 2.48565 3.45016 2.48565 3.47159 2.5428Z" fill="white"/>
<path d="M3.47159 4.72854L3.61445 5.14997H4.05731C4.11445 5.14997 4.13588 5.2214 4.09302 5.25711L3.73588 5.5214L3.87159 5.94282C3.88588 5.99997 3.82874 6.04283 3.77874 6.00711L3.42159 5.74997L3.06445 6.00711C3.01445 6.04283 2.95731 5.99282 2.97159 5.94282L3.10731 5.5214L2.75016 5.25711C2.70731 5.2214 2.72874 5.14997 2.78588 5.14997H3.22874L3.37159 4.72854C3.37874 4.67854 3.45016 4.67854 3.47159 4.72854Z" fill="white"/>
<path d="M3.47159 6.9214L3.61445 7.34283H4.05731C4.11445 7.34283 4.13588 7.41425 4.09302 7.44997L3.73588 7.71425L3.87159 8.13568C3.88588 8.19283 3.82874 8.23568 3.77874 8.19997L3.42159 7.94283L3.06445 8.19997C3.01445 8.23568 2.95731 8.18568 2.97159 8.13568L3.10731 7.71425L2.75016 7.44997C2.70731 7.41425 2.72874 7.34283 2.78588 7.34283H3.22874L3.37159 6.9214C3.37874 6.86425 3.45016 6.86425 3.47159 6.9214Z" fill="white"/>
<path d="M3.47159 9.10708L3.61445 9.52851H4.05731C4.11445 9.52851 4.13588 9.59994 4.09302 9.63565L3.73588 9.89994L3.87159 10.3214C3.88588 10.3785 3.82874 10.4214 3.77874 10.3857L3.42159 10.1285L3.06445 10.3857C3.01445 10.4214 2.95731 10.3714 2.97159 10.3214L3.10731 9.89994L2.75016 9.63565C2.70731 9.59994 2.72874 9.52851 2.78588 9.52851H3.22874L3.37159 9.10708C3.37874 9.05708 3.45016 9.05708 3.47159 9.10708Z" fill="white"/>
<path d="M5.17179 1.46426L5.31465 1.88569H5.7575C5.81464 1.88569 5.83607 1.95711 5.79322 1.99283L5.43607 2.25711L5.57179 2.67854C5.58607 2.73569 5.52893 2.77854 5.47893 2.74283L5.12179 2.48569L4.76465 2.74283C4.71465 2.77854 4.6575 2.72854 4.67179 2.67854L4.8075 2.25711L4.45036 1.99283C4.4075 1.95711 4.42893 1.88569 4.48607 1.88569H4.92893L5.07179 1.46426C5.07179 1.41426 5.15036 1.41426 5.17179 1.46426Z" fill="white"/>
<path d="M5.17179 3.65711L5.31465 4.07854H5.7575C5.81464 4.07854 5.83607 4.14997 5.79322 4.18569L5.43607 4.44997L5.57179 4.8714C5.58607 4.92854 5.52893 4.9714 5.47893 4.93569L5.12179 4.67854L4.76465 4.93569C4.71465 4.9714 4.6575 4.9214 4.67179 4.8714L4.8075 4.44997L4.45036 4.18569C4.4075 4.14997 4.42893 4.07854 4.48607 4.07854H4.92893L5.07179 3.65711C5.07179 3.59997 5.15036 3.59997 5.17179 3.65711Z" fill="white"/>
<path d="M5.17179 5.8428L5.31465 6.26423H5.7575C5.81464 6.26423 5.83607 6.33565 5.79322 6.37137L5.43607 6.63565L5.57179 7.05708C5.58607 7.11423 5.52893 7.15708 5.47893 7.12137L5.12179 6.86423L4.76465 7.12137C4.71465 7.15708 4.6575 7.10708 4.67179 7.05708L4.8075 6.63565L4.45036 6.37137C4.4075 6.33565 4.42893 6.26423 4.48607 6.26423H4.92893L5.07179 5.8428C5.07179 5.7928 5.15036 5.7928 5.17179 5.8428Z" fill="white"/>
<path d="M5.17179 8.03565L5.31465 8.45708H5.7575C5.81464 8.45708 5.83607 8.52851 5.79322 8.56423L5.43607 8.82851L5.57179 9.24994C5.58607 9.30708 5.52893 9.34994 5.47893 9.31423L5.12179 9.05708L4.76465 9.31423C4.71465 9.34994 4.6575 9.29994 4.67179 9.24994L4.8075 8.82851L4.45036 8.56423C4.4075 8.52851 4.42893 8.45708 4.48607 8.45708H4.92893L5.07179 8.03565C5.07179 7.97851 5.15036 7.97851 5.17179 8.03565Z" fill="white"/>
<path d="M5.17179 10.2285L5.31465 10.65H5.7575C5.81464 10.65 5.83607 10.7214 5.79322 10.7571L5.43607 11.0214L5.57179 11.4428C5.58607 11.5 5.52893 11.5428 5.47893 11.5071L5.12179 11.25L4.76465 11.5071C4.71465 11.5428 4.6575 11.4928 4.67179 11.4428L4.8075 11.0214L4.45036 10.7571C4.4075 10.7214 4.42893 10.65 4.48607 10.65H4.92893L5.07179 10.2285C5.07179 10.1714 5.15036 10.1714 5.17179 10.2285Z" fill="white"/>
<path d="M6.87101 2.5428L7.01386 2.96422H7.45672C7.51386 2.96422 7.53529 3.03565 7.49244 3.07137L7.13529 3.33565L7.27101 3.75708C7.28529 3.81422 7.22815 3.85708 7.17815 3.82137L6.82101 3.56422L6.46386 3.82137C6.41386 3.85708 6.35672 3.80708 6.37101 3.75708L6.50672 3.33565L6.14958 3.07137C6.10672 3.03565 6.12815 2.96422 6.18529 2.96422H6.62815L6.77101 2.5428C6.77101 2.48565 6.84958 2.48565 6.87101 2.5428Z" fill="white"/>
<path d="M6.87101 4.72854L7.01386 5.14997H7.45672C7.51386 5.14997 7.53529 5.2214 7.49244 5.25711L7.13529 5.5214L7.27101 5.94282C7.28529 5.99997 7.22815 6.04283 7.17815 6.00711L6.82101 5.74997L6.46386 6.00711C6.41386 6.04283 6.35672 5.99282 6.37101 5.94282L6.50672 5.5214L6.14958 5.25711C6.10672 5.2214 6.12815 5.14997 6.18529 5.14997H6.62815L6.77101 4.72854C6.77101 4.67854 6.84958 4.67854 6.87101 4.72854Z" fill="white"/>
<path d="M6.87101 6.9214L7.01386 7.34283H7.45672C7.51386 7.34283 7.53529 7.41425 7.49244 7.44997L7.13529 7.71425L7.27101 8.13568C7.28529 8.19283 7.22815 8.23568 7.17815 8.19997L6.82101 7.94283L6.46386 8.19997C6.41386 8.23568 6.35672 8.18568 6.37101 8.13568L6.50672 7.71425L6.14958 7.44997C6.10672 7.41425 6.12815 7.34283 6.18529 7.34283H6.62815L6.77101 6.9214C6.77101 6.86425 6.84958 6.86425 6.87101 6.9214Z" fill="white"/>
<path d="M6.87101 9.10708L7.01386 9.52851H7.45672C7.51386 9.52851 7.53529 9.59994 7.49244 9.63565L7.13529 9.89994L7.27101 10.3214C7.28529 10.3785 7.22815 10.4214 7.17815 10.3857L6.82101 10.1285L6.46386 10.3857C6.41386 10.4214 6.35672 10.3714 6.37101 10.3214L6.50672 9.89994L6.14958 9.63565C6.10672 9.59994 6.12815 9.52851 6.18529 9.52851H6.62815L6.77101 9.10708C6.77101 9.05708 6.84958 9.05708 6.87101 9.10708Z" fill="white"/>
<path d="M8.5712 1.46426L8.71406 1.88569H9.15692C9.21406 1.88569 9.23549 1.95711 9.19263 1.99283L8.83549 2.25711L8.9712 2.67854C8.98549 2.73569 8.92834 2.77854 8.87834 2.74283L8.5212 2.48569L8.16406 2.74283C8.11406 2.77854 8.05692 2.72854 8.0712 2.67854L8.20692 2.25711L7.84977 1.99283C7.80692 1.95711 7.82835 1.88569 7.88549 1.88569H8.32834L8.4712 1.46426C8.4712 1.41426 8.54977 1.41426 8.5712 1.46426Z" fill="white"/>
<path d="M8.5712 3.65711L8.71406 4.07854H9.15692C9.21406 4.07854 9.23549 4.14997 9.19263 4.18569L8.83549 4.44997L8.9712 4.8714C8.98549 4.92854 8.92834 4.9714 8.87834 4.93569L8.5212 4.67854L8.16406 4.93569C8.11406 4.9714 8.05692 4.9214 8.0712 4.8714L8.20692 4.44997L7.84977 4.18569C7.80692 4.14997 7.82835 4.07854 7.88549 4.07854H8.32834L8.4712 3.65711C8.4712 3.59997 8.54977 3.59997 8.5712 3.65711Z" fill="white"/>
<path d="M8.5712 5.8428L8.71406 6.26423H9.15692C9.21406 6.26423 9.23549 6.33565 9.19263 6.37137L8.83549 6.63565L8.9712 7.05708C8.98549 7.11423 8.92834 7.15708 8.87834 7.12137L8.5212 6.86423L8.16406 7.12137C8.11406 7.15708 8.05692 7.10708 8.0712 7.05708L8.20692 6.63565L7.84977 6.37137C7.80692 6.33565 7.82835 6.26423 7.88549 6.26423H8.32834L8.4712 5.8428C8.4712 5.7928 8.54977 5.7928 8.5712 5.8428Z" fill="white"/>
<path d="M8.5712 8.03565L8.71406 8.45708H9.15692C9.21406 8.45708 9.23549 8.52851 9.19263 8.56423L8.83549 8.82851L8.9712 9.24994C8.98549 9.30708 8.92834 9.34994 8.87834 9.31423L8.5212 9.05708L8.16406 9.31423C8.11406 9.34994 8.05692 9.29994 8.0712 9.24994L8.20692 8.82851L7.84977 8.56423C7.80692 8.52851 7.82835 8.45708 7.88549 8.45708H8.32834L8.4712 8.03565C8.4712 7.97851 8.54977 7.97851 8.5712 8.03565Z" fill="white"/>
<path d="M8.5712 10.2285L8.71406 10.65H9.15692C9.21406 10.65 9.23549 10.7214 9.19263 10.7571L8.83549 11.0214L8.9712 11.4428C8.98549 11.5 8.92834 11.5428 8.87834 11.5071L8.5212 11.25L8.16406 11.5071C8.11406 11.5428 8.05692 11.4928 8.0712 11.4428L8.20692 11.0214L7.84977 10.7571C7.80692 10.7214 7.82835 10.65 7.88549 10.65H8.32834L8.4712 10.2285C8.4712 10.1714 8.54977 10.1714 8.5712 10.2285Z" fill="white"/>
<path d="M10.2714 2.5428L10.4143 2.96422H10.8571C10.9143 2.96422 10.9357 3.03565 10.8928 3.07137L10.5357 3.33565L10.6714 3.75708C10.6857 3.81422 10.6285 3.85708 10.5785 3.82137L10.2214 3.56422L9.86426 3.82137C9.81426 3.85708 9.75711 3.80708 9.7714 3.75708L9.90711 3.33565L9.54997 3.07137C9.50711 3.03565 9.52854 2.96422 9.58568 2.96422H10.0285L10.1714 2.5428C10.1714 2.48565 10.25 2.48565 10.2714 2.5428Z" fill="white"/>
<path d="M10.2714 4.72854L10.4143 5.14997H10.8571C10.9143 5.14997 10.9357 5.2214 10.8928 5.25711L10.5357 5.5214L10.6714 5.94282C10.6857 5.99997 10.6285 6.04283 10.5785 6.00711L10.2214 5.74997L9.86426 6.00711C9.81426 6.04283 9.75711 5.99282 9.7714 5.94282L9.90711 5.5214L9.54997 5.25711C9.50711 5.2214 9.52854 5.14997 9.58568 5.14997H10.0285L10.1714 4.72854C10.1714 4.67854 10.25 4.67854 10.2714 4.72854Z" fill="white"/>
<path d="M10.2714 6.9214L10.4143 7.34283H10.8571C10.9143 7.34283 10.9357 7.41425 10.8928 7.44997L10.5357 7.71425L10.6714 8.13568C10.6857 8.19283 10.6285 8.23568 10.5785 8.19997L10.2214 7.94283L9.86426 8.19997C9.81426 8.23568 9.75711 8.18568 9.7714 8.13568L9.90711 7.71425L9.54997 7.44997C9.50711 7.41425 9.52854 7.34283 9.58568 7.34283H10.0285L10.1714 6.9214C10.1714 6.86425 10.25 6.86425 10.2714 6.9214Z" fill="white"/>
<path d="M10.2714 9.10708L10.4143 9.52851H10.8571C10.9143 9.52851 10.9357 9.59994 10.8928 9.63565L10.5357 9.89994L10.6714 10.3214C10.6857 10.3785 10.6285 10.4214 10.5785 10.3857L10.2214 10.1285L9.86426 10.3857C9.81426 10.4214 9.75711 10.3714 9.7714 10.3214L9.90711 9.89994L9.54997 9.63565C9.50711 9.59994 9.52854 9.52851 9.58568 9.52851H10.0285L10.1714 9.10708C10.1714 9.05708 10.25 9.05708 10.2714 9.10708Z" fill="white"/>
<path d="M11.9648 1.46426L12.1076 1.88569H12.5505C12.6076 1.88569 12.629 1.95711 12.5862 1.99283L12.229 2.25711L12.3648 2.67854C12.379 2.73569 12.3219 2.77854 12.2719 2.74283L11.9148 2.48569L11.5576 2.74283C11.5076 2.77854 11.4505 2.72854 11.4648 2.67854L11.6005 2.25711L11.2433 1.99283C11.2005 1.95711 11.2219 1.88569 11.279 1.88569H11.7219L11.8648 1.46426C11.8719 1.41426 11.9505 1.41426 11.9648 1.46426Z" fill="white"/>
<path d="M11.9648 3.65711L12.1076 4.07854H12.5505C12.6076 4.07854 12.629 4.14997 12.5862 4.18569L12.229 4.44997L12.3648 4.8714C12.379 4.92854 12.3219 4.9714 12.2719 4.93569L11.9148 4.67854L11.5576 4.93569C11.5076 4.9714 11.4505 4.9214 11.4648 4.8714L11.6005 4.44997L11.2433 4.18569C11.2005 4.14997 11.2219 4.07854 11.279 4.07854H11.7219L11.8648 3.65711C11.8719 3.59997 11.9505 3.59997 11.9648 3.65711Z" fill="white"/>
<path d="M11.9648 5.8428L12.1076 6.26423H12.5505C12.6076 6.26423 12.629 6.33565 12.5862 6.37137L12.229 6.63565L12.3648 7.05708C12.379 7.11423 12.3219 7.15708 12.2719 7.12137L11.9148 6.86423L11.5576 7.12137C11.5076 7.15708 11.4505 7.10708 11.4648 7.05708L11.6005 6.63565L11.2433 6.37137C11.2005 6.33565 11.2219 6.26423 11.279 6.26423H11.7219L11.8648 5.8428C11.8719 5.7928 11.9505 5.7928 11.9648 5.8428Z" fill="white"/>
<path d="M11.9648 8.03565L12.1076 8.45708H12.5505C12.6076 8.45708 12.629 8.52851 12.5862 8.56423L12.229 8.82851L12.3648 9.24994C12.379 9.30708 12.3219 9.34994 12.2719 9.31423L11.9148 9.05708L11.5576 9.31423C11.5076 9.34994 11.4505 9.29994 11.4648 9.24994L11.6005 8.82851L11.2433 8.56423C11.2005 8.52851 11.2219 8.45708 11.279 8.45708H11.7219L11.8648 8.03565C11.8719 7.97851 11.9505 7.97851 11.9648 8.03565Z" fill="white"/>
<path d="M11.9648 10.2285L12.1076 10.65H12.5505C12.6076 10.65 12.629 10.7214 12.5862 10.7571L12.229 11.0214L12.3648 11.4428C12.379 11.5 12.3219 11.5428 12.2719 11.5071L11.9148 11.25L11.5576 11.5071C11.5076 11.5428 11.4505 11.4928 11.4648 11.4428L11.6005 11.0214L11.2433 10.7571C11.2005 10.7214 11.2219 10.65 11.279 10.65H11.7219L11.8648 10.2285C11.8719 10.1714 11.9505 10.1714 11.9648 10.2285Z" fill="white"/>
<path d="M13.664 2.5428L13.8068 2.96422H14.2497C14.3068 2.96422 14.3283 3.03565 14.2854 3.07137L13.9283 3.33565L14.064 3.75708C14.0783 3.81422 14.0211 3.85708 13.9711 3.82137L13.614 3.56422L13.2568 3.82137C13.2068 3.85708 13.1497 3.80708 13.164 3.75708L13.2997 3.33565L12.9425 3.07137C12.8997 3.03565 12.9211 2.96422 12.9783 2.96422H13.4211L13.564 2.5428C13.5711 2.48565 13.6497 2.48565 13.664 2.5428Z" fill="white"/>
<path d="M13.664 4.72854L13.8068 5.14997H14.2497C14.3068 5.14997 14.3283 5.2214 14.2854 5.25711L13.9283 5.5214L14.064 5.94282C14.0783 5.99997 14.0211 6.04283 13.9711 6.00711L13.614 5.74997L13.2568 6.00711C13.2068 6.04283 13.1497 5.99282 13.164 5.94282L13.2997 5.5214L12.9425 5.25711C12.8997 5.2214 12.9211 5.14997 12.9783 5.14997H13.4211L13.564 4.72854C13.5711 4.67854 13.6497 4.67854 13.664 4.72854Z" fill="white"/>
<path d="M13.664 6.9214L13.8068 7.34283H14.2497C14.3068 7.34283 14.3283 7.41425 14.2854 7.44997L13.9283 7.71425L14.064 8.13568C14.0783 8.19283 14.0211 8.23568 13.9711 8.19997L13.614 7.94283L13.2568 8.19997C13.2068 8.23568 13.1497 8.18568 13.164 8.13568L13.2997 7.71425L12.9425 7.44997C12.8997 7.41425 12.9211 7.34283 12.9783 7.34283H13.4211L13.564 6.9214C13.5711 6.86425 13.6497 6.86425 13.664 6.9214Z" fill="white"/>
<path d="M13.664 9.10708L13.8068 9.52851H14.2497C14.3068 9.52851 14.3283 9.59994 14.2854 9.63565L13.9283 9.89994L14.064 10.3214C14.0783 10.3785 14.0211 10.4214 13.9711 10.3857L13.614 10.1285L13.2568 10.3857C13.2068 10.4214 13.1497 10.3714 13.164 10.3214L13.2997 9.89994L12.9425 9.63565C12.8997 9.59994 12.9211 9.52851 12.9783 9.52851H13.4211L13.564 9.10708C13.5711 9.05708 13.6497 9.05708 13.664 9.10708Z" fill="white"/>
<path d="M15.3642 1.46426L15.507 1.88569H15.9499C16.007 1.88569 16.0285 1.95711 15.9856 1.99283L15.6285 2.25711L15.7642 2.67854C15.7785 2.73569 15.7213 2.77854 15.6713 2.74283L15.3142 2.48569L14.957 2.74283C14.907 2.77854 14.8499 2.72854 14.8642 2.67854L14.9999 2.25711L14.6427 1.99283C14.5999 1.95711 14.6213 1.88569 14.6785 1.88569H15.1213L15.2642 1.46426C15.2713 1.41426 15.3499 1.41426 15.3642 1.46426Z" fill="white"/>
<path d="M15.3642 3.65711L15.507 4.07854H15.9499C16.007 4.07854 16.0285 4.14997 15.9856 4.18569L15.6285 4.44997L15.7642 4.8714C15.7785 4.92854 15.7213 4.9714 15.6713 4.93569L15.3142 4.67854L14.957 4.93569C14.907 4.9714 14.8499 4.9214 14.8642 4.8714L14.9999 4.44997L14.6427 4.18569C14.5999 4.14997 14.6213 4.07854 14.6785 4.07854H15.1213L15.2642 3.65711C15.2713 3.59997 15.3499 3.59997 15.3642 3.65711Z" fill="white"/>
<path d="M15.3642 5.8428L15.507 6.26423H15.9499C16.007 6.26423 16.0285 6.33565 15.9856 6.37137L15.6285 6.63565L15.7642 7.05708C15.7785 7.11423 15.7213 7.15708 15.6713 7.12137L15.3142 6.86423L14.957 7.12137C14.907 7.15708 14.8499 7.10708 14.8642 7.05708L14.9999 6.63565L14.6427 6.37137C14.5999 6.33565 14.6213 6.26423 14.6785 6.26423H15.1213L15.2642 5.8428C15.2713 5.7928 15.3499 5.7928 15.3642 5.8428Z" fill="white"/>
<path d="M15.3642 8.03565L15.507 8.45708H15.9499C16.007 8.45708 16.0285 8.52851 15.9856 8.56423L15.6285 8.82851L15.7642 9.24994C15.7785 9.30708 15.7213 9.34994 15.6713 9.31423L15.3142 9.05708L14.957 9.31423C14.907 9.34994 14.8499 9.29994 14.8642 9.24994L14.9999 8.82851L14.6427 8.56423C14.5999 8.52851 14.6213 8.45708 14.6785 8.45708H15.1213L15.2642 8.03565C15.2713 7.97851 15.3499 7.97851 15.3642 8.03565Z" fill="white"/>
<path d="M15.3642 10.2285L15.507 10.65H15.9499C16.007 10.65 16.0285 10.7214 15.9856 10.7571L15.6285 11.0214L15.7642 11.4428C15.7785 11.5 15.7213 11.5428 15.6713 11.5071L15.3142 11.25L14.957 11.5071C14.907 11.5428 14.8499 11.4928 14.8642 11.4428L14.9999 11.0214L14.6427 10.7571C14.5999 10.7214 14.6213 10.65 14.6785 10.65H15.1213L15.2642 10.2285C15.2713 10.1714 15.3499 10.1714 15.3642 10.2285Z" fill="white"/>
<path d="M36.5714 16.6143H0V18.4571H36.5714V16.6143Z" fill="white"/>
</g>
</svg>
