<svg width="32" height="32" viewBox="0 0 32 32" fill="none" xmlns="http://www.w3.org/2000/svg">
<g clipPath="url(#clip0_2240_33073)">
<path d="M16.0132 2.68164C17.0503 2.6817 18.0518 3.05947 18.8306 3.74431L19.0359 3.93764L19.9666 4.86831C20.222 5.12206 20.5555 5.28225 20.9132 5.32297L21.0932 5.33364H22.4266C23.5162 5.33358 24.5645 5.7504 25.3567 6.49863C26.1488 7.24685 26.6246 8.26978 26.6866 9.35764L26.6932 9.60031V10.9336C26.6932 11.2936 26.8159 11.6443 27.0372 11.9243L27.1572 12.0576L28.0866 12.9883C28.8569 13.7542 29.306 14.7851 29.3424 15.8708C29.3788 16.9565 28.9998 18.0151 28.2826 18.831L28.0892 19.0363L27.1586 19.967C26.9048 20.2224 26.7446 20.5559 26.7039 20.9136L26.6932 21.0936V22.427C26.6933 23.5166 26.2765 24.565 25.5282 25.3571C24.78 26.1492 23.7571 26.625 22.6692 26.687L22.4266 26.6936H21.0932C20.7337 26.6938 20.3848 26.8149 20.1026 27.0376L19.9692 27.1576L19.0386 28.087C18.2726 28.8573 17.2417 29.3064 16.1561 29.3428C15.0704 29.3793 14.0117 29.0002 13.1959 28.283L12.9906 28.0896L12.0599 27.159C11.8045 26.9052 11.471 26.745 11.1132 26.7043L10.9332 26.6936H9.5999C8.51027 26.6937 7.46192 26.2769 6.66981 25.5287C5.8777 24.7804 5.40187 23.7575 5.3399 22.6696L5.33323 22.427V21.0936C5.33311 20.7341 5.21193 20.3852 4.98923 20.103L4.86923 19.9696L3.9399 19.039C3.16961 18.273 2.72046 17.2421 2.68404 16.1565C2.64762 15.0708 3.02667 14.0121 3.7439 13.1963L3.93723 12.991L4.8679 12.0603C5.12165 11.8049 5.28184 11.4714 5.32256 11.1136L5.33323 10.9336V9.60031L5.3399 9.35764C5.39943 8.31157 5.8418 7.32397 6.58268 6.58309C7.32356 5.84221 8.31116 5.39984 9.35723 5.34031L9.5999 5.33364H10.9332C11.2927 5.33352 11.6417 5.21234 11.9239 4.98964L12.0572 4.86964L12.9879 3.94031C13.3843 3.54149 13.8557 3.22498 14.3749 3.00897C14.8941 2.79297 15.4509 2.68172 16.0132 2.68164ZM20.9426 12.391C20.6925 12.141 20.3535 12.0006 19.9999 12.0006C19.6463 12.0006 19.3073 12.141 19.0572 12.391L14.6666 16.7803L12.9426 15.0576L12.8172 14.947C12.5492 14.7398 12.2124 14.6423 11.8752 14.6744C11.538 14.7066 11.2256 14.8658 11.0016 15.1199C10.7775 15.374 10.6586 15.7039 10.6689 16.0425C10.6793 16.3811 10.8181 16.703 11.0572 16.943L13.7239 19.6096L13.8492 19.7203C14.1058 19.9193 14.4261 20.0179 14.7501 19.9975C15.0742 19.9771 15.3796 19.8392 15.6092 19.6096L20.9426 14.2763L21.0532 14.151C21.2522 13.8944 21.3508 13.5741 21.3304 13.2501C21.31 12.926 21.1721 12.6206 20.9426 12.391Z" fill="#10B981"/>
</g>
<defs>
<clipPath id="clip0_2240_33073">
<rect width="32" height="32" fill="white"/>
</clipPath>
</defs>
</svg>
