<svg width="40" height="40" viewBox="0 0 40 40" fill="none" xmlns="http://www.w3.org/2000/svg">
<rect width="40" height="40" rx="8" fill="#B6B0FE"/>
<path d="M20 28.3454C19.8927 28.3454 19.7871 28.3177 19.6936 28.2651L12.8186 24.3979C12.7219 24.3435 12.6415 24.2644 12.5855 24.1687C12.5295 24.073 12.5 23.9641 12.5 23.8532V16.1467C12.5 16.0358 12.5295 15.9269 12.5855 15.8312C12.6415 15.7355 12.7219 15.6564 12.8186 15.602L19.6936 11.7348C19.7871 11.6822 19.8927 11.6545 20 11.6545C20.1073 11.6545 20.2129 11.6822 20.3064 11.7348L27.1814 15.602C27.2781 15.6564 27.3585 15.7355 27.4145 15.8312C27.4705 15.9269 27.5 16.0358 27.5 16.1467V23.8532C27.5 23.9641 27.4705 24.073 27.4145 24.1687C27.3585 24.2644 27.2781 24.3435 27.1814 24.3979L20.3064 28.2651C20.2129 28.3177 20.1073 28.3454 20 28.3454ZM20 28.3454L20.0741 19.9999M23.8298 21.9149V17.8524L16.25 13.6718M27.4138 15.8302L20.0741 19.9999M20.0741 19.9999L12.5866 15.8294" stroke="white" strokeWidth="1.5" strokeLinecap="round" strokeLinejoin="round"/>
</svg>
