<svg width="40" height="40" viewBox="0 0 40 40" fill="none" xmlns="http://www.w3.org/2000/svg">
<rect width="40" height="40" rx="8" fill="#9BBCFE"/>
<path d="M13.125 15V25C13.125 25.3315 13.2567 25.6495 13.4911 25.8839C13.7255 26.1183 14.0435 26.25 14.375 26.25H26.875C27.0408 26.25 27.1997 26.1842 27.3169 26.0669C27.4342 25.9497 27.5 25.7908 27.5 25.625V16.875C27.5 16.7092 27.4342 16.5503 27.3169 16.4331C27.1997 16.3158 27.0408 16.25 26.875 16.25H14.375C14.0435 16.25 13.7255 16.1183 13.4911 15.8839C13.2567 15.6495 13.125 15.3315 13.125 15ZM13.125 15C13.125 14.6685 13.2567 14.3505 13.4911 14.1161C13.7255 13.8817 14.0435 13.75 14.375 13.75H25" stroke="white" strokeWidth="1.5" strokeLinecap="round" strokeLinejoin="round"/>
<path d="M24.0625 22.1875C24.5803 22.1875 25 21.7678 25 21.25C25 20.7322 24.5803 20.3125 24.0625 20.3125C23.5447 20.3125 23.125 20.7322 23.125 21.25C23.125 21.7678 23.5447 22.1875 24.0625 22.1875Z" fill="white"/>
</svg>
