<svg width="32" height="32" viewBox="0 0 32 32" fill="none" xmlns="http://www.w3.org/2000/svg">
<path d="M16.0003 2.66699C8.65366 2.66699 2.66699 8.65366 2.66699 16.0003C2.66699 23.347 8.65366 29.3337 16.0003 29.3337C23.347 29.3337 29.3337 23.347 29.3337 16.0003C29.3337 8.65366 23.347 2.66699 16.0003 2.66699ZM15.0003 10.667C15.0003 10.1203 15.4537 9.66699 16.0003 9.66699C16.547 9.66699 17.0003 10.1203 17.0003 10.667V17.3337C17.0003 17.8803 16.547 18.3337 16.0003 18.3337C15.4537 18.3337 15.0003 17.8803 15.0003 17.3337V10.667ZM17.227 21.8403C17.1603 22.0137 17.067 22.147 16.947 22.2803C16.8137 22.4003 16.667 22.4937 16.507 22.5603C16.347 22.627 16.1737 22.667 16.0003 22.667C15.827 22.667 15.6537 22.627 15.4937 22.5603C15.3337 22.4937 15.187 22.4003 15.0537 22.2803C14.9337 22.147 14.8403 22.0137 14.7737 21.8403C14.707 21.6803 14.667 21.507 14.667 21.3337C14.667 21.1603 14.707 20.987 14.7737 20.827C14.8403 20.667 14.9337 20.5203 15.0537 20.387C15.187 20.267 15.3337 20.1737 15.4937 20.107C15.8137 19.9737 16.187 19.9737 16.507 20.107C16.667 20.1737 16.8137 20.267 16.947 20.387C17.067 20.5203 17.1603 20.667 17.227 20.827C17.2937 20.987 17.3337 21.1603 17.3337 21.3337C17.3337 21.507 17.2937 21.6803 17.227 21.8403Z" fill="#347AE2"/>
</svg>
