<svg width="18" height="18" viewBox="0 0 18 18" fill="none" xmlns="http://www.w3.org/2000/svg">
<g id="vuesax/linear/info-circle">
<g id="info-circle">
<path id="Vector (Stroke)" fillRule="evenodd" clipRule="evenodd" d="M0.0410156 9.00033C0.0410156 4.07181 4.07084 0.0419922 8.99935 0.0419922C13.9279 0.0419922 17.9577 4.07181 17.9577 9.00033C17.9577 13.9288 13.9279 17.9587 8.99935 17.9587C4.07084 17.9587 0.0410156 13.9288 0.0410156 9.00033ZM8.99935 1.29199C4.76119 1.29199 1.29102 4.76217 1.29102 9.00033C1.29102 13.2385 4.76119 16.7087 8.99935 16.7087C13.2375 16.7087 16.7077 13.2385 16.7077 9.00033C16.7077 4.76217 13.2375 1.29199 8.99935 1.29199Z" fill="#DC2626"/>
<path id="Vector (Stroke)_2" fillRule="evenodd" clipRule="evenodd" d="M9 5.04199C9.34518 5.04199 9.625 5.32181 9.625 5.66699V9.83366C9.625 10.1788 9.34518 10.4587 9 10.4587C8.65482 10.4587 8.375 10.1788 8.375 9.83366V5.66699C8.375 5.32181 8.65482 5.04199 9 5.04199Z" fill="#DC2626"/>
<path id="Vector (Stroke)_3" fillRule="evenodd" clipRule="evenodd" d="M8.16016 12.3333C8.16016 11.8731 8.53325 11.5 8.99349 11.5H9.00097C9.46121 11.5 9.83431 11.8731 9.83431 12.3333C9.83431 12.7936 9.46121 13.1667 9.00097 13.1667H8.99349C8.53325 13.1667 8.16016 12.7936 8.16016 12.3333Z" fill="#DC2626"/>
</g>
</g>
</svg>
