<svg width="24" height="24" viewBox="0 0 24 24" fill="none" xmlns="http://www.w3.org/2000/svg">
<g id="lock">
<path id="Vector" d="M18.3294 10.8662H5.19731C4.16121 10.8662 3.32129 11.7061 3.32129 12.7422V19.3083C3.32129 20.3444 4.16121 21.1843 5.19731 21.1843H18.3294C19.3655 21.1843 20.2054 20.3444 20.2054 19.3083V12.7422C20.2054 11.7061 19.3655 10.8662 18.3294 10.8662Z" stroke="white" strokeWidth="1.12562" strokeLinecap="round" strokeLinejoin="round"/>
<path id="Vector_2" d="M7.07324 10.8669V7.11485C7.07324 5.87097 7.56737 4.67804 8.44692 3.79849C9.32648 2.91893 10.5194 2.4248 11.7633 2.4248C13.0072 2.4248 14.2001 2.91893 15.0796 3.79849C15.9592 4.67804 16.4533 5.87097 16.4533 7.11485V10.8669" stroke="white" strokeWidth="1.12562" strokeLinecap="round" strokeLinejoin="round"/>
</g>
</svg>
