<svg width="20" height="20" viewBox="0 0 20 20" fill="none" xmlns="http://www.w3.org/2000/svg">
<path d="M12.6093 2.08334C11.7885 1.81296 10.9114 1.66667 10 1.66667C5.39765 1.66667 1.66669 5.39763 1.66669 10C1.66669 14.6024 5.39765 18.3333 10 18.3333C14.6024 18.3333 18.3334 14.6024 18.3334 10C18.3334 9.129 18.1997 8.28921 17.9519 7.5" stroke="#DF5FFE" stroke-width="1.25" stroke-linecap="round"/>
<path d="M14.1666 9.99999C14.1666 12.3012 12.3012 14.1667 9.99998 14.1667C7.69879 14.1667 5.83331 12.3012 5.83331 9.99999C5.83331 7.69881 7.69879 5.83333 9.99998 5.83333" stroke="#DF5FFE" stroke-width="1.25" stroke-linecap="round" stroke-linejoin="round"/>
<path d="M16.25 3.74999L10 10M16.25 3.74999V1.66666M16.25 3.74999H18.3333" stroke="#DF5FFE" stroke-width="1.25" stroke-linecap="round"/>
</svg>
