<svg width="25" height="24" viewBox="0 0 25 24" fill="none" xmlns="http://www.w3.org/2000/svg">
<g id="vuesax/bold/moneys">
<g id="moneys">
<path id="Vector" d="M19.7481 6.63953C19.3181 4.46953 17.7081 3.51953 15.4681 3.51953H6.68809C4.04809 3.51953 2.28809 4.83953 2.28809 7.91953V13.0695C2.28809 15.2895 3.19809 16.5895 4.69809 17.1495C4.91809 17.2295 5.15809 17.2995 5.40809 17.3395C5.80809 17.4295 6.23809 17.4695 6.68809 17.4695H15.4781C18.1181 17.4695 19.8781 16.1495 19.8781 13.0695V7.91953C19.8781 7.44953 19.8381 7.02953 19.7481 6.63953ZM6.10809 11.9995C6.10809 12.4095 5.76809 12.7495 5.35809 12.7495C4.94809 12.7495 4.60809 12.4095 4.60809 11.9995V8.99953C4.60809 8.58953 4.94809 8.24953 5.35809 8.24953C5.76809 8.24953 6.10809 8.58953 6.10809 8.99953V11.9995ZM11.0781 13.1395C9.61809 13.1395 8.43809 11.9595 8.43809 10.4995C8.43809 9.03953 9.61809 7.85953 11.0781 7.85953C12.5381 7.85953 13.7181 9.03953 13.7181 10.4995C13.7181 11.9595 12.5381 13.1395 11.0781 13.1395ZM17.5381 11.9995C17.5381 12.4095 17.1981 12.7495 16.7881 12.7495C16.3781 12.7495 16.0381 12.4095 16.0381 11.9995V8.99953C16.0381 8.58953 16.3781 8.24953 16.7881 8.24953C17.1981 8.24953 17.5381 8.58953 17.5381 8.99953V11.9995Z" fill="#FF6900"/>
<path id="Vector_2" d="M22.8779 10.9203V16.0703C22.8779 19.1503 21.1179 20.4803 18.4679 20.4803H9.68789C8.93789 20.4803 8.26789 20.3703 7.68789 20.1503C7.21789 19.9803 6.80789 19.7303 6.47789 19.4103C6.29789 19.2403 6.43789 18.9703 6.68789 18.9703H15.4679C19.1679 18.9703 21.3679 16.7703 21.3679 13.0803V7.92028C21.3679 7.68028 21.6379 7.53028 21.8079 7.71028C22.4879 8.43028 22.8779 9.48028 22.8779 10.9203Z" fill="#FF6900"/>
</g>
</g>
</svg>
