<svg width="205" height="173" viewBox="0 0 205 173" fill="none" xmlns="http://www.w3.org/2000/svg">
<g id="Frame" clipPath="url(#clip0_843_92478)">
<g id="Group">
<path id="Vector" opacity="0.7" d="M0 137.839L89.02 100.309L141 131.949L59.72 172.449L0 137.839Z" fill="url(#paint0_linear_843_92478)"/>
<path id="Vector_2" d="M67.0696 109.621L122.49 82.3706V22.6406L62.7696 44.5406V106.941C62.7596 109.151 65.0796 110.601 67.0696 109.621Z" fill="#EDA462"/>
<path id="Vector_3" d="M122.482 141.109L64.4317 112.559C63.4117 112.059 62.7617 111.019 62.7617 109.879V44.5391L122.482 66.4391V141.109Z" fill="#DD9B5E"/>
<path id="Vector_4" d="M177.9 109.621L122.48 82.3706V22.6406L182.2 44.5406V106.941C182.21 109.151 179.89 110.601 177.9 109.621Z" fill="#E59351"/>
<path id="Vector_5" d="M145.118 0L122.488 22.64L182.208 44.54L204.868 21.69L145.118 0Z" fill="#F6C482"/>
<path id="Vector_6" d="M40.1016 21.69L62.7616 44.54L122.492 22.64L99.8516 0L40.1016 21.69Z" fill="#F6C482"/>
<path id="Vector_7" d="M122.48 141.109L180.53 112.559C181.55 112.059 182.2 111.019 182.2 109.879V44.5391L122.48 66.4391V141.109Z" fill="#F6C482"/>
<path id="Vector_8" d="M92.5702 115.869L68.8902 105.199C68.0702 104.829 67.4102 103.859 67.4102 103.039V90.8388C67.4102 90.0188 68.0702 89.6488 68.8902 90.0088L92.5702 100.679C93.3902 101.049 94.0502 102.019 94.0502 102.839V115.039C94.0502 115.859 93.3902 116.229 92.5702 115.869Z" fill="#CB794D"/>
<g id="Group_2">
<path id="Vector_9" d="M142.51 115.66C142.51 119.26 139.72 123.25 136.29 124.58C132.85 125.91 130.07 124.07 130.07 120.47C130.07 116.87 132.86 112.88 136.29 111.55C139.73 110.22 142.51 112.06 142.51 115.66Z" fill="#CB794D"/>
<path id="Vector_10" d="M131.383 119.958C131.383 116.598 133.823 112.878 136.943 111.328C136.723 111.388 136.503 111.458 136.283 111.548C132.843 112.878 130.062 116.868 130.062 120.468C130.062 124.068 132.853 125.908 136.283 124.578C136.503 124.488 136.723 124.398 136.943 124.288C133.823 125.148 131.383 123.328 131.383 119.958Z" fill="#B76441"/>
<path id="Vector_11" d="M132.803 122.702L135.533 121.652C135.803 121.542 136.023 121.232 136.023 120.942C136.023 120.652 135.803 120.512 135.533 120.612L132.803 121.662C132.793 121.662 132.783 121.672 132.773 121.652C132.763 121.642 132.773 121.632 132.773 121.622L133.493 120.022C133.843 120.202 134.373 119.682 134.303 119.242L134.163 118.352C134.143 118.002 133.803 117.912 133.483 118.162L132.593 118.872C132.343 119.072 132.213 119.422 132.313 119.652C132.373 119.782 132.493 119.842 132.633 119.832L131.913 121.442C131.533 122.312 132.023 123.002 132.803 122.702Z" fill="#B76441"/>
<path id="Vector_12" d="M140.661 118.08L139.331 116.14C139.201 115.94 138.891 115.97 138.661 116.21C138.421 116.44 138.341 116.79 138.471 116.99L139.801 118.93C139.801 118.93 139.811 118.94 139.801 118.96C139.791 118.98 139.781 118.98 139.781 118.98L138.291 119.56C138.321 119.4 138.291 119.26 138.191 119.17C138.021 119.01 137.711 119.1 137.501 119.36C137.461 119.41 136.781 120.24 136.741 120.28C136.501 120.58 136.501 120.97 136.751 121.08L137.501 121.42C137.711 121.52 138.021 121.36 138.191 121.07C138.291 120.91 138.321 120.74 138.291 120.6L139.781 120.02C140.551 119.7 141.041 118.64 140.661 118.08Z" fill="#B76441"/>
<path id="Vector_13" d="M138.364 113.879C138.214 113.909 138.074 114.019 137.964 114.149L137.164 112.989C136.774 112.419 135.784 112.799 135.394 113.669L133.984 116.809C133.854 117.109 133.934 117.389 134.174 117.439C134.414 117.489 134.714 117.289 134.844 116.989L136.254 113.849C136.254 113.839 136.264 113.829 136.284 113.829C136.304 113.819 136.304 113.829 136.314 113.839L137.114 115.009C136.974 115.109 136.854 115.259 136.794 115.439C136.694 115.739 136.814 115.999 137.074 115.999L137.964 116.019C138.274 116.029 138.614 115.669 138.644 115.309L138.784 114.309C138.824 114.009 138.634 113.819 138.364 113.879Z" fill="#B76441"/>
</g>
<g id="Group_3">
<path id="Vector_14" d="M155.613 111.871L146.053 116.491C145.723 116.651 145.453 117.041 145.453 117.381C145.453 117.711 145.723 117.841 146.053 117.691L155.613 113.071C155.943 112.911 156.203 112.521 156.203 112.191C156.213 111.851 155.943 111.711 155.613 111.871Z" fill="#CB794D"/>
<path id="Vector_15" d="M146.052 111.723C146.202 111.653 146.362 111.512 146.472 111.342L147.242 110.202V114.132C147.242 114.462 147.512 114.603 147.842 114.443C148.172 114.283 148.442 113.893 148.442 113.553V109.623L149.212 110.022C149.332 110.082 149.482 110.063 149.632 109.993C149.782 109.923 149.932 109.793 150.052 109.613C150.282 109.263 150.282 108.892 150.052 108.772L148.262 107.853C148.202 107.823 148.142 107.812 148.062 107.812C147.912 107.822 147.752 107.903 147.612 108.033C147.542 108.103 147.472 108.173 147.412 108.263L145.622 110.923C145.392 111.273 145.392 111.643 145.622 111.763C145.752 111.813 145.902 111.793 146.052 111.723Z" fill="#CB794D"/>
<path id="Vector_16" d="M152.032 108.832C152.182 108.762 152.342 108.622 152.452 108.452L153.222 107.312V111.242C153.222 111.572 153.492 111.712 153.822 111.552C154.152 111.392 154.422 111.002 154.422 110.662V106.732L155.192 107.132C155.312 107.192 155.462 107.172 155.612 107.102C155.762 107.032 155.912 106.892 156.032 106.722C156.262 106.372 156.262 106.002 156.032 105.882L154.242 104.962C154.182 104.932 154.122 104.922 154.042 104.922C153.892 104.932 153.732 105.012 153.592 105.142C153.522 105.212 153.452 105.282 153.392 105.372L151.602 108.032C151.372 108.382 151.372 108.752 151.602 108.872C151.722 108.922 151.872 108.902 152.032 108.832Z" fill="#CB794D"/>
</g>
<g id="Group_4">
<path id="Vector_17" d="M52.7695 19.5391L111.87 41.2791L122.48 66.4391L62.7695 44.5491L52.7695 19.5391Z" fill="#DF9F61"/>
</g>
<path id="Vector_18" d="M192.198 19.5391L191.948 20.1591L182.198 44.5391L123.128 66.2091L122.498 66.4391H122.488L133.098 41.2691L192.198 19.5391Z" fill="#DF9F61"/>
<g id="Group_5">
<path id="Vector_19" d="M122 66.2581L122.34 66.1181L122.81 65.9181L112.33 41.0781L111.87 41.2681L111.41 41.4681L121.85 66.2081L122 66.2581Z" fill="#CB794D"/>
</g>
<g id="Group_6">
<path id="Vector_20" d="M111.41 41.4703L52.5898 20.0103L52.9398 19.0703L112.33 41.0803L111.41 41.4703Z" fill="#F6C482"/>
</g>
<g id="Group_7">
<path id="Vector_21" d="M192.371 20.0103L191.951 20.1603L133.481 41.6703L123.131 66.2103L122.501 66.4403H122.491L122.031 66.2403L132.721 40.8803L192.031 19.0703L192.201 19.5403L192.371 20.0103Z" fill="#F6C482"/>
</g>
</g>
</g>
<defs>
<linearGradient id="paint0_linear_843_92478" x1="55.5287" y1="164.625" x2="91.0357" y2="94.1" gradientUnits="userSpaceOnUse">
<stop offset="0.0245" stop-color="white"/>
<stop offset="0.1705" stop-color="#EBE1D8"/>
<stop offset="0.3305" stop-color="#D9C6B6"/>
<stop offset="0.4934" stop-color="#CBB19B"/>
<stop offset="0.658" stop-color="#C1A287"/>
<stop offset="0.8254" stop-color="#BB997C"/>
<stop offset="1" stop-color="#B99678"/>
</linearGradient>
<clipPath id="clip0_843_92478">
<rect width="204.87" height="172.45" fill="white"/>
</clipPath>
</defs>
</svg>
