<svg width="18" height="18" viewBox="0 0 18 18" fill="none" xmlns="http://www.w3.org/2000/svg">
<path fillRule="evenodd" clipRule="evenodd" d="M0.9375 9C0.9375 4.56434 4.56434 0.9375 9 0.9375C13.4357 0.9375 17.0625 4.56434 17.0625 9C17.0625 13.4357 13.4357 17.0625 9 17.0625C4.56434 17.0625 0.9375 13.4357 0.9375 9ZM9 2.0625C5.18566 2.0625 2.0625 5.18566 2.0625 9C2.0625 12.8143 5.18566 15.9375 9 15.9375C12.8143 15.9375 15.9375 12.8143 15.9375 9C15.9375 5.18566 12.8143 2.0625 9 2.0625Z" fill="#FF6900"/>
<path fillRule="evenodd" clipRule="evenodd" d="M5.4375 9C5.4375 8.68934 5.68934 8.4375 6 8.4375H12C12.3107 8.4375 12.5625 8.68934 12.5625 9C12.5625 9.31066 12.3107 9.5625 12 9.5625H6C5.68934 9.5625 5.4375 9.31066 5.4375 9Z" fill="#FF6900"/>
<path fillRule="evenodd" clipRule="evenodd" d="M9 5.4375C9.31066 5.4375 9.5625 5.68934 9.5625 6V12C9.5625 12.3107 9.31066 12.5625 9 12.5625C8.68934 12.5625 8.4375 12.3107 8.4375 12V6C8.4375 5.68934 8.68934 5.4375 9 5.4375Z" fill="#FF6900"/>
</svg>
