<svg width="16" height="14" viewBox="0 0 16 14" fill="none" xmlns="http://www.w3.org/2000/svg">
<g id="vuesax/linear/repeate-music">
<g id="repeate-music">
<path id="Vector (Stroke)" fillRule="evenodd" clipRule="evenodd" d="M8.97247 0.653918C9.16361 0.454615 9.48012 0.447995 9.67942 0.639132L11.3061 2.19915C11.4536 2.3406 11.5002 2.55758 11.4237 2.7471C11.3472 2.93662 11.1631 3.06053 10.9587 3.06002L5.66001 3.04667C5.65981 3.04667 5.6596 3.04667 5.6594 3.04667C3.55682 3.04701 1.82668 4.77536 1.82668 6.89335C1.82668 7.94828 2.25647 8.90937 2.95355 9.60645C3.14882 9.80171 3.14882 10.1183 2.95355 10.3136C2.75829 10.5088 2.44171 10.5088 2.24645 10.3136C1.3702 9.4373 0.826675 8.22509 0.826675 6.89335C0.826675 4.22488 3.00287 2.04667 5.66001 2.04667H5.66127L9.713 2.05688L8.98726 1.36087C8.78795 1.16973 8.78133 0.85322 8.97247 0.653918Z" fill="#FF6900" stroke="#FF6900" strokeWidth="0.5" strokeLinecap="round" strokeLinejoin="round"/>
<path id="Vector (Stroke)_2" fillRule="evenodd" clipRule="evenodd" d="M13.0468 3.68649C13.2421 3.49122 13.5587 3.49122 13.7539 3.68649C14.6302 4.56274 15.1737 5.77495 15.1737 7.10669C15.1737 9.77516 12.9975 11.9534 10.3404 11.9534L10.3391 11.9534L6.28738 11.9432L7.01313 12.6392C7.21243 12.8303 7.21905 13.1468 7.02791 13.3461C6.83678 13.5454 6.52026 13.552 6.32096 13.3609L4.69429 11.8009C4.5468 11.6594 4.50023 11.4425 4.5767 11.2529C4.65316 11.0634 4.83727 10.9395 5.04164 10.94L10.3404 10.9534C10.3406 10.9534 10.3409 10.9534 10.3411 10.9534C12.4436 10.953 14.1737 9.22464 14.1737 7.10669C14.1737 6.05176 13.7439 5.09067 13.0468 4.39359C12.8516 4.19833 12.8516 3.88175 13.0468 3.68649Z" fill="#FF6900" stroke="#FF6900" strokeWidth="0.5" strokeLinecap="round" strokeLinejoin="round"/>
<path id="Vector (Stroke)_3" fillRule="evenodd" clipRule="evenodd" d="M5.5 7C5.5 6.72386 5.72386 6.5 6 6.5H10C10.2761 6.5 10.5 6.72386 10.5 7C10.5 7.27614 10.2761 7.5 10 7.5H6C5.72386 7.5 5.5 7.27614 5.5 7Z" fill="#FF6900" stroke="#FF6900" strokeWidth="0.5" strokeLinecap="round" strokeLinejoin="round"/>
</g>
</g>
</svg>
