<svg width="14" height="14" viewBox="0 0 14 14" fill="none" xmlns="http://www.w3.org/2000/svg">
<path d="M1.654 6.99935C1.654 4.04732 4.02701 1.65352 6.99984 1.65352C8.80051 1.65352 10.1521 2.40195 11.0633 3.16203C11.3797 3.42596 11.6412 3.69 11.8475 3.92185H10.2432C9.97393 3.92185 9.75567 4.14011 9.75567 4.40935C9.75567 4.67859 9.97393 4.89685 10.2432 4.89685H12.8332C13.1024 4.89685 13.3207 4.67859 13.3207 4.40935V1.49268C13.3207 1.22344 13.1024 1.00518 12.8332 1.00518C12.5639 1.00518 12.3457 1.22344 12.3457 1.49268V3.02539C12.1565 2.82941 11.9373 2.6214 11.6878 2.41334C10.655 1.55176 9.09001 0.678516 6.99984 0.678516C3.48599 0.678516 0.679004 3.51138 0.679004 6.99935C0.679004 7.26859 0.897265 7.48685 1.1665 7.48685C1.43574 7.48685 1.654 7.26859 1.654 6.99935ZM13.3207 6.99935C13.3207 6.73011 13.1024 6.51185 12.8332 6.51185C12.5639 6.51185 12.3457 6.73011 12.3457 6.99935C12.3457 9.95011 9.9506 12.3452 6.99984 12.3452C5.55913 12.3452 4.37483 11.619 3.52694 10.8499C3.23109 10.5816 2.98153 10.3127 2.7824 10.0768H4.45067C4.71991 10.0768 4.93817 9.85859 4.93817 9.58935C4.93817 9.32011 4.71991 9.10185 4.45067 9.10185H1.814C1.54476 9.10185 1.3265 9.32011 1.3265 9.58935V12.506C1.3265 12.7753 1.54476 12.9935 1.814 12.9935C2.08324 12.9935 2.3015 12.7753 2.3015 12.506V11.0053C2.46939 11.1876 2.65983 11.3798 2.8719 11.5721C3.81191 12.4247 5.22053 13.3202 6.99984 13.3202C10.4891 13.3202 13.3207 10.4886 13.3207 6.99935Z" fill="#FF6900" stroke="#FF6900" strokeWidth="0.1" strokeLinecap="round" strokeLinejoin="round"/>
</svg>
