<svg width="32" height="32" viewBox="0 0 32 32" fill="none" xmlns="http://www.w3.org/2000/svg">
<g clipPath="url(#clip0_856_117795)">
<path d="M16.0132 2.68134C17.0503 2.6814 18.0518 3.05916 18.8306 3.744L19.0359 3.93734L19.9666 4.868C20.222 5.12175 20.5555 5.28194 20.9132 5.32267L21.0932 5.33334H22.4266C23.5162 5.33327 24.5645 5.7501 25.3567 6.49832C26.1488 7.24655 26.6246 8.26948 26.6866 9.35734L26.6932 9.6V10.9333C26.6932 11.2933 26.8159 11.644 27.0372 11.924L27.1572 12.0573L28.0866 12.988C28.8569 13.7539 29.306 14.7848 29.3424 15.8705C29.3788 16.9562 28.9998 18.0148 28.2826 18.8307L28.0892 19.036L27.1586 19.9667C26.9048 20.2221 26.7446 20.5556 26.7039 20.9133L26.6932 21.0933V22.4267C26.6933 23.5163 26.2765 24.5646 25.5282 25.3568C24.78 26.1489 23.7571 26.6247 22.6692 26.6867L22.4266 26.6933H21.0932C20.7337 26.6935 20.3848 26.8146 20.1026 27.0373L19.9692 27.1573L19.0386 28.0867C18.2726 28.857 17.2417 29.3061 16.1561 29.3425C15.0704 29.3789 14.0117 28.9999 13.1959 28.2827L12.9906 28.0893L12.0599 27.1587C11.8045 26.9049 11.471 26.7447 11.1132 26.704L10.9332 26.6933H9.5999C8.51027 26.6934 7.46192 26.2766 6.66981 25.5284C5.8777 24.7801 5.40187 23.7572 5.3399 22.6693L5.33323 22.4267V21.0933C5.33311 20.7338 5.21193 20.3849 4.98923 20.1027L4.86923 19.9693L3.9399 19.0387C3.16961 18.2727 2.72046 17.2418 2.68404 16.1562C2.64762 15.0705 3.02667 14.0118 3.7439 13.196L3.93723 12.9907L4.8679 12.06C5.12165 11.8046 5.28184 11.4711 5.32256 11.1133L5.33323 10.9333V9.6L5.3399 9.35734C5.39943 8.31126 5.8418 7.32367 6.58268 6.58279C7.32356 5.8419 8.31116 5.39954 9.35723 5.34L9.5999 5.33334H10.9332C11.2927 5.33322 11.6417 5.21204 11.9239 4.98934L12.0572 4.86934L12.9879 3.94C13.3843 3.54119 13.8557 3.22468 14.3749 3.00867C14.8941 2.79266 15.4509 2.68142 16.0132 2.68134ZM20.9426 12.3907C20.6925 12.1407 20.3535 12.0003 19.9999 12.0003C19.6463 12.0003 19.3073 12.1407 19.0572 12.3907L14.6666 16.78L12.9426 15.0573L12.8172 14.9467C12.5492 14.7395 12.2124 14.642 11.8752 14.6741C11.538 14.7063 11.2256 14.8655 11.0016 15.1196C10.7775 15.3737 10.6586 15.7036 10.6689 16.0422C10.6793 16.3808 10.8181 16.7027 11.0572 16.9427L13.7239 19.6093L13.8492 19.72C14.1058 19.919 14.4261 20.0176 14.7501 19.9972C15.0742 19.9768 15.3796 19.8389 15.6092 19.6093L20.9426 14.276L21.0532 14.1507C21.2522 13.8941 21.3508 13.5738 21.3304 13.2498C21.31 12.9257 21.1721 12.6203 20.9426 12.3907Z" fill="white"/>
</g>
<defs>
<clipPath id="clip0_856_117795">
<rect width="32" height="32" fill="white"/>
</clipPath>
</defs>
</svg>
