<svg width="64" height="64" viewBox="0 0 64 64" fill="none" xmlns="http://www.w3.org/2000/svg">
<g clipPath="url(#clip0_829_68101)">
<path d="M32.0267 5.36267C34.1008 5.3628 36.1039 6.11833 37.6614 7.488L38.072 7.87467L39.9334 9.736C40.4442 10.2435 41.1113 10.5639 41.8267 10.6453L42.1867 10.6667H44.8534C47.0326 10.6665 49.1293 11.5002 50.7136 12.9966C52.2978 14.4931 53.2494 16.539 53.3734 18.7147L53.3867 19.2V21.8667C53.3867 22.5867 53.632 23.288 54.0747 23.848L54.3147 24.1147L56.1734 25.976C57.714 27.5079 58.6123 29.5697 58.6851 31.741C58.7579 33.9123 57.9998 36.0297 56.5654 37.6613L56.1787 38.072L54.3174 39.9333C53.8099 40.4442 53.4895 41.1112 53.408 41.8267L53.3867 42.1867V44.8533C53.3868 47.0326 52.5532 49.1293 51.0567 50.7135C49.5603 52.2977 47.5144 53.2494 45.3387 53.3733L44.8534 53.3867H42.1867C41.4677 53.3869 40.7698 53.6293 40.2054 54.0747L39.9387 54.3147L38.0774 56.1733C36.5455 57.7139 34.4837 58.6122 32.3124 58.6851C30.1411 58.7579 28.0237 57.9998 26.392 56.5653L25.9814 56.1787L24.12 54.3173C23.6092 53.8098 22.9422 53.4895 22.2267 53.408L21.8667 53.3867H19.2C17.0208 53.3868 14.9241 52.5532 13.3399 51.0567C11.7556 49.5602 10.804 47.5144 10.68 45.3387L10.6667 44.8533V42.1867C10.6665 41.4677 10.4241 40.7697 9.97871 40.2053L9.73871 39.9387L7.88004 38.0773C6.33946 36.5455 5.44117 34.4837 5.36833 32.3124C5.29549 30.141 6.05358 28.0237 7.48804 26.392L7.87471 25.9813L9.73604 24.12C10.2435 23.6092 10.5639 22.9421 10.6454 22.2267L10.6667 21.8667V19.2L10.68 18.7147C10.7991 16.6225 11.6838 14.6473 13.1656 13.1656C14.6474 11.6838 16.6226 10.7991 18.7147 10.68L19.2 10.6667H21.8667C22.5857 10.6664 23.2836 10.4241 23.848 9.97867L24.1147 9.73867L25.976 7.88C26.7689 7.08237 27.7117 6.44935 28.7501 6.01734C29.7885 5.58532 30.902 5.36283 32.0267 5.36267ZM41.8854 24.7813C41.3853 24.2814 40.7071 24.0006 40 24.0006C39.2929 24.0006 38.6148 24.2814 38.1147 24.7813L29.3334 33.56L25.8854 30.1147L25.6347 29.8933C25.0987 29.4789 24.4251 29.284 23.7506 29.3483C23.0762 29.4125 22.4515 29.7311 22.0034 30.2393C21.5553 30.7474 21.3174 31.4071 21.3381 32.0843C21.3588 32.7615 21.6364 33.4055 22.1147 33.8853L27.448 39.2187L27.6987 39.44C28.2118 39.838 28.8525 40.0351 29.5005 39.9944C30.1486 39.9536 30.7595 39.6778 31.2187 39.2187L41.8854 28.552L42.1067 28.3013C42.5047 27.7883 42.7018 27.1476 42.6611 26.4995C42.6203 25.8515 42.3445 25.2405 41.8854 24.7813Z" fill="#008000"/>
</g>
<defs>
<clipPath id="clip0_829_68101">
<rect width="64" height="64" fill="white"/>
</clipPath>
</defs>
</svg>
