<svg width="64" height="64" viewBox="0 0 64 64" fill="none" xmlns="http://www.w3.org/2000/svg">
<g clipPath="url(#clip0_893_131938)">
<path d="M32.0265 5.36328C34.1006 5.36341 36.1036 6.11894 37.6611 7.48862L38.0718 7.87528L39.9331 9.73662C40.444 10.2441 41.111 10.5645 41.8265 10.6459L42.1865 10.6673H44.8531C47.0324 10.6672 49.1291 11.5008 50.7133 12.9973C52.2975 14.4937 53.2492 16.5396 53.3731 18.7153L53.3865 19.2006V21.8673C53.3865 22.5873 53.6318 23.2886 54.0745 23.8486L54.3145 24.1153L56.1731 25.9766C57.7137 27.5085 58.612 29.5703 58.6848 31.7416C58.7577 33.9129 57.9996 36.0303 56.5651 37.6619L56.1785 38.0726L54.3171 39.934C53.8096 40.4448 53.4893 41.1118 53.4078 41.8273L53.3865 42.1873V44.854C53.3866 47.0332 52.5529 49.1299 51.0565 50.7141C49.56 52.2983 47.5142 53.25 45.3385 53.3739L44.8531 53.3873H42.1865C41.4675 53.3875 40.7695 53.6299 40.2051 54.0753L39.9385 54.3153L38.0771 56.174C36.5453 57.7145 34.4835 58.6128 32.3121 58.6857C30.1408 58.7585 28.0235 58.0004 26.3918 56.5659L25.9811 56.1793L24.1198 54.3179C23.609 53.8105 22.9419 53.4901 22.2265 53.4086L21.8665 53.3873H19.1998C17.0205 53.3874 14.9238 52.5538 13.3396 51.0573C11.7554 49.5609 10.8037 47.515 10.6798 45.3393L10.6665 44.854V42.1873C10.6662 41.4683 10.4239 40.7703 9.97846 40.2059L9.73846 39.9393L7.8798 38.0779C6.33921 36.5461 5.44092 34.4843 5.36808 32.313C5.29524 30.1416 6.05334 28.0243 7.4878 26.3926L7.87446 25.9819L9.7358 24.1206C10.2433 23.6098 10.5637 22.9427 10.6451 22.2273L10.6665 21.8673V19.2006L10.6798 18.7153C10.7989 16.6231 11.6836 14.6479 13.1654 13.1662C14.6471 11.6844 16.6223 10.7997 18.7145 10.6806L19.1998 10.6673H21.8665C22.5854 10.667 23.2834 10.4247 23.8478 9.97928L24.1145 9.73928L25.9758 7.88061C26.7687 7.08298 27.7114 6.44996 28.7498 6.01795C29.7882 5.58593 30.9018 5.36344 32.0265 5.36328ZM41.8851 24.7819C41.3851 24.282 40.7069 24.0012 39.9998 24.0012C39.2927 24.0012 38.6145 24.282 38.1145 24.7819L29.3331 33.5606L25.8851 30.1153L25.6345 29.8939C25.0985 29.4795 24.4249 29.2846 23.7504 29.3489C23.0759 29.4131 22.4512 29.7317 22.0031 30.2399C21.555 30.748 21.3172 31.4077 21.3379 32.0849C21.3585 32.7621 21.6362 33.4061 22.1145 33.8859L27.4478 39.2193L27.6985 39.4406C28.2115 39.8386 28.8522 40.0357 29.5003 39.995C30.1483 39.9542 30.7593 39.6784 31.2185 39.2193L41.8851 28.5526L42.1065 28.3019C42.5045 27.7889 42.7016 27.1482 42.6608 26.5001C42.6201 25.8521 42.3443 25.2411 41.8851 24.7819Z" fill="#16A34A"/>
</g>
<defs>
<clipPath id="clip0_893_131938">
<rect width="64" height="64" fill="white"/>
</clipPath>
</defs>
</svg>
