<svg width="16" height="16" viewBox="0 0 16 16" fill="none" xmlns="http://www.w3.org/2000/svg">
<g clipPath="url(#clip0_1210_21042)">
<path d="M10.836 5.16407C10.1164 4.44449 9.10051 3.97888 7.99998 3.97888C6.89946 3.97888 5.88358 4.42333 5.16401 5.16407C4.44443 5.88364 3.97882 6.89952 3.97882 8.00005C3.97882 9.10057 4.44443 10.1164 5.16401 10.836C5.88358 11.5556 6.89946 12.0212 7.99998 12.0212C9.10051 12.0212 10.1164 11.5768 10.836 10.836C11.5555 10.1164 12.0211 9.10057 12.0211 8.00005C12.0211 6.89952 11.5767 5.88364 10.836 5.16407Z" fill="#FF6900"/>
<path d="M7.99997 2.73016C8.29627 2.73016 8.55024 2.47619 8.55024 2.17989V0.550265C8.55024 0.253968 8.29627 0 7.99997 0C7.70367 0 7.44971 0.253968 7.44971 0.550265V2.17989C7.44971 2.47619 7.70367 2.73016 7.99997 2.73016Z" fill="#FF6900"/>
<path d="M12.5079 4.27509L13.6719 3.11106C13.8836 2.89942 13.8836 2.5608 13.6719 2.34916C13.4603 2.13752 13.1217 2.13752 12.91 2.34916L11.746 3.51318C11.5344 3.72482 11.5344 4.06345 11.746 4.27509C11.9365 4.48673 12.2751 4.48673 12.5079 4.27509Z" fill="#FF6900"/>
<path d="M15.4497 7.44971H13.8201C13.5238 7.44971 13.2698 7.70367 13.2698 7.99997C13.2698 8.29627 13.5238 8.55024 13.8201 8.55024H15.4497C15.746 8.55024 16 8.29627 16 7.99997C16 7.70367 15.746 7.44971 15.4497 7.44971Z" fill="#FF6900"/>
<path d="M12.4868 11.7249C12.2752 11.5133 11.9365 11.5133 11.7249 11.7249C11.5133 11.9365 11.5133 12.2752 11.7249 12.4868L12.8889 13.6508C13.1006 13.8625 13.4392 13.8625 13.6508 13.6508C13.8625 13.4392 13.8625 13.1006 13.6508 12.8889L12.4868 11.7249Z" fill="#FF6900"/>
<path d="M7.99997 13.2699C7.70367 13.2699 7.44971 13.5239 7.44971 13.8202V15.4498C7.44971 15.7461 7.70367 16.0001 7.99997 16.0001C8.29627 16.0001 8.55024 15.7461 8.55024 15.4498V13.8202C8.55024 13.5239 8.29627 13.2699 7.99997 13.2699Z" fill="#FF6900"/>
<path d="M3.49206 11.7249L2.32804 12.8889C2.1164 13.1006 2.1164 13.4392 2.32804 13.6508C2.53968 13.8625 2.87831 13.8625 3.08995 13.6508L4.25397 12.4868C4.46561 12.2752 4.46561 11.9365 4.25397 11.7249C4.06349 11.5133 3.72487 11.5133 3.49206 11.7249Z" fill="#FF6900"/>
<path d="M2.73016 7.99997C2.73016 7.70367 2.47619 7.44971 2.17989 7.44971H0.550265C0.253968 7.44971 0 7.70367 0 7.99997C0 8.29627 0.253968 8.55024 0.550265 8.55024H2.17989C2.47619 8.55024 2.73016 8.29627 2.73016 7.99997Z" fill="#FF6900"/>
<path d="M3.49206 4.27509C3.7037 4.48673 4.04233 4.48673 4.25397 4.27509C4.46561 4.06345 4.46561 3.72482 4.25397 3.51318L3.08995 2.34916C2.87831 2.13752 2.53968 2.13752 2.32804 2.34916C2.1164 2.5608 2.1164 2.89942 2.32804 3.11106L3.49206 4.27509Z" fill="#FF6900"/>
</g>
<defs>
<clipPath id="clip0_1210_21042">
<rect width="16" height="16" fill="white"/>
</clipPath>
</defs>
</svg>
