<svg width="16" height="17" viewBox="0 0 16 17" fill="none" xmlns="http://www.w3.org/2000/svg">
<g clipPath="url(#clip0_807_64894)">
<path d="M13.3337 7.83346C13.1706 6.66028 12.6264 5.57324 11.7848 4.73979C10.9431 3.90635 9.85083 3.37274 8.67611 3.22116C7.50138 3.06959 6.30941 3.30845 5.28379 3.90096C4.25818 4.49347 3.45582 5.40675 3.00033 6.50013M2.66699 3.83346V6.50013H5.33366" stroke="#FF6900" strokeWidth="1.5" strokeLinecap="round" strokeLinejoin="round"/>
<path d="M2.66699 9.1665C2.83003 10.3397 3.37428 11.4267 4.2159 12.2602C5.05752 13.0936 6.14982 13.6272 7.32455 13.7788C8.49927 13.9304 9.69124 13.6915 10.7169 13.099C11.7425 12.5065 12.5448 11.5932 13.0003 10.4998M13.3337 13.1665V10.4998H10.667" stroke="#FF6900" strokeWidth="1.5" strokeLinecap="round" strokeLinejoin="round"/>
</g>
<defs>
<clipPath id="clip0_807_64894">
<rect width="16" height="16" fill="white" transform="translate(0 0.5)"/>
</clipPath>
</defs>
</svg>
