<svg width="16" height="16" viewBox="0 0 16 16" fill="none" xmlns="http://www.w3.org/2000/svg">
<path fillRule="evenodd" clipRule="evenodd" d="M3.31052 3.35578C4.64689 3.22082 5.98341 3.15332 7.32004 3.15332C9.56362 3.15332 11.8134 3.26751 14.0493 3.48909C14.3241 3.51632 14.5248 3.76117 14.4976 4.03596C14.4704 4.31076 14.2255 4.51145 13.9507 4.48422C11.7467 4.26579 9.52979 4.15332 7.32004 4.15332C6.0169 4.15332 4.71367 4.21913 3.41029 4.35079L3.40882 4.35093L2.04882 4.48427C1.774 4.51121 1.52937 4.31026 1.50242 4.03544C1.47548 3.76061 1.67643 3.51598 1.95125 3.48904L3.31052 3.35578Z" fill="#8A8785"/>
<path fillRule="evenodd" clipRule="evenodd" d="M6.30631 2.52272L6.15968 3.39582C6.11394 3.66815 5.8561 3.85184 5.58377 3.8061C5.31144 3.76037 5.12775 3.50253 5.17349 3.2302L5.32015 2.35686C5.32272 2.34165 5.32535 2.32572 5.32803 2.30959C5.37393 2.03234 5.44127 1.62559 5.7124 1.31814C6.02845 0.959752 6.51065 0.833008 7.12658 0.833008H8.87325C9.49668 0.833008 9.9784 0.969941 10.2926 1.33197C10.5641 1.64484 10.6297 2.05305 10.6736 2.32561C10.6757 2.33888 10.6778 2.35182 10.6798 2.36441L10.8262 3.22958C10.8723 3.50185 10.689 3.75992 10.4167 3.806C10.1444 3.85207 9.88634 3.66871 9.84026 3.39644L9.69309 2.5268C9.63733 2.18479 9.60205 2.06202 9.53728 1.98738C9.50144 1.94608 9.37649 1.83301 8.87325 1.83301H7.12658C6.61585 1.83301 6.49472 1.94293 6.46243 1.97955C6.40102 2.04919 6.36636 2.16618 6.30631 2.52272Z" fill="#8A8785"/>
<path fillRule="evenodd" clipRule="evenodd" d="M12.5992 5.59383C12.8747 5.61162 13.0837 5.84943 13.0659 6.125L12.6324 12.8411L12.6315 12.8537C12.6139 13.1046 12.5946 13.3804 12.5429 13.637C12.4893 13.9031 12.3949 14.184 12.2035 14.4332C11.8027 14.955 11.1207 15.1661 10.1403 15.1661H5.86028C4.8799 15.1661 4.19786 14.955 3.79708 14.4332C3.60568 14.184 3.51122 13.9031 3.45762 13.637C3.40593 13.3804 3.38662 13.1046 3.36905 12.8537L3.36798 12.8383L2.93465 6.125C2.91686 5.84943 3.12584 5.61162 3.4014 5.59383C3.67697 5.57604 3.91479 5.78502 3.93257 6.06058L4.36572 12.7712C4.36575 12.7716 4.36579 12.7721 4.36582 12.7725C4.38463 13.041 4.40056 13.254 4.43794 13.4396C4.47434 13.6204 4.52488 13.7391 4.59014 13.8241C4.7027 13.9706 4.98065 14.1661 5.86028 14.1661H10.1403C11.0199 14.1661 11.2979 13.9706 11.4104 13.8241C11.4757 13.7391 11.5262 13.6204 11.5626 13.4396C11.6 13.254 11.6159 13.041 11.6347 12.7725C11.6348 12.7721 11.6348 12.7716 11.6348 12.7712L12.068 6.06058C12.0858 5.78502 12.3236 5.57604 12.5992 5.59383Z" fill="#8A8785"/>
<path fillRule="evenodd" clipRule="evenodd" d="M6.38672 11C6.38672 10.7239 6.61058 10.5 6.88672 10.5H9.10672C9.38286 10.5 9.60672 10.7239 9.60672 11C9.60672 11.2761 9.38286 11.5 9.10672 11.5H6.88672C6.61058 11.5 6.38672 11.2761 6.38672 11Z" fill="#8A8785"/>
<path fillRule="evenodd" clipRule="evenodd" d="M5.8335 8.33301C5.8335 8.05687 6.05735 7.83301 6.3335 7.83301H9.66683C9.94297 7.83301 10.1668 8.05687 10.1668 8.33301C10.1668 8.60915 9.94297 8.83301 9.66683 8.83301H6.3335C6.05735 8.83301 5.8335 8.60915 5.8335 8.33301Z" fill="#8A8785"/>
</svg>
