<svg width="18" height="18" viewBox="0 0 18 18" fill="none" xmlns="http://www.w3.org/2000/svg">
<g clipPath="url(#clip0_1296_27772)">
<path d="M3.87909 3.87909C3.47589 4.28229 3.24937 4.82915 3.24937 5.39937L3.24937 6.14908C3.24937 6.14912 3.24937 6.14915 3.24937 6.14918C3.24917 6.45258 3.12908 6.7436 2.91529 6.95885C2.91513 6.959 2.91498 6.95916 2.91482 6.95931L2.39181 7.48232C2.39164 7.4825 2.39146 7.48267 2.39129 7.48284C2.19061 7.68254 2.03134 7.9199 1.92263 8.18131C1.81382 8.44295 1.75781 8.72351 1.75781 9.00687C1.75781 9.29023 1.81382 9.57079 1.92263 9.83243C2.03135 10.0939 2.19064 10.3313 2.39135 10.531C2.39151 10.5311 2.39166 10.5313 2.39181 10.5314L2.91482 11.0544C2.91494 11.0545 2.91505 11.0547 2.91517 11.0548C3.12906 11.2701 3.2492 11.5612 3.24937 11.8647L3.24937 12.6144C3.24937 13.1846 3.47589 13.7314 3.87909 14.1346C4.28229 14.5379 4.82915 14.7644 5.39937 14.7644H6.14908C6.45255 14.7645 6.74364 14.8847 6.95892 15.0985C6.95905 15.0987 6.95918 15.0988 6.95931 15.0989L7.48232 15.6219C7.48247 15.6221 7.48262 15.6222 7.48277 15.6224C7.68248 15.8231 7.91987 15.9824 8.18131 16.0911C8.44295 16.1999 8.72351 16.2559 9.00687 16.2559C9.29023 16.2559 9.57079 16.1999 9.83243 16.0911C10.0938 15.9824 10.3312 15.8231 10.5309 15.6225C10.5311 15.6223 10.5312 15.6221 10.5314 15.6219L11.0544 15.0989C11.0546 15.0988 11.0547 15.0986 11.0549 15.0985C11.2702 14.8846 11.5612 14.7645 11.8647 14.7644H12.6144C13.1846 14.7644 13.7314 14.5379 14.1346 14.1346C14.5379 13.7314 14.7644 13.1846 14.7644 12.6144V11.8647C14.7645 11.5612 14.8846 11.2702 15.0985 11.0549C15.0986 11.0547 15.0988 11.0546 15.0989 11.0544L15.6219 10.5314C15.6221 10.5312 15.6223 10.5311 15.6225 10.5309C15.8231 10.3312 15.9824 10.0938 16.0911 9.83243C16.1999 9.57079 16.2559 9.29023 16.2559 9.00687C16.2559 8.72351 16.1999 8.44295 16.0911 8.18131C15.9824 7.91987 15.8231 7.68248 15.6224 7.48277C15.6222 7.48262 15.6221 7.48247 15.6219 7.48232L15.0988 6.95918C15.0987 6.95908 15.0986 6.95899 15.0985 6.9589C14.8845 6.74366 14.7644 6.4521 14.7644 6.14937V5.39937C14.7644 4.82915 14.5379 4.28229 14.1346 3.87909C13.7314 3.47589 13.1846 3.24937 12.6144 3.24937H11.8644C11.5617 3.24937 11.2702 3.12933 11.055 2.91537C11.0548 2.91523 11.0547 2.91509 11.0546 2.91496L10.5314 2.39181C10.5313 2.39166 10.5311 2.39151 10.531 2.39135C10.3313 2.19064 10.0939 2.03135 9.83243 1.92263C9.57079 1.81382 9.29023 1.75781 9.00687 1.75781C8.72351 1.75781 8.44295 1.81382 8.18131 1.92263C7.9199 2.03134 7.68254 2.19061 7.48284 2.39129C7.48267 2.39146 7.4825 2.39164 7.48232 2.39181L6.95931 2.91482C6.95916 2.91498 6.959 2.91513 6.95885 2.91529C6.74358 3.12911 6.45252 3.2492 6.14908 3.24937L5.39937 3.24937C4.82915 3.24937 4.28229 3.47589 3.87909 3.87909Z" fill="#FF6900" stroke="#FF6900" strokeLinecap="round" strokeLinejoin="round"/>
<path d="M6.75 9L8.25 10.5L11.25 7.5" stroke="white" strokeWidth="1.5" strokeLinecap="round" strokeLinejoin="round"/>
</g>
<defs>
<clipPath id="clip0_1296_27772">
<rect width="18" height="18" fill="white"/>
</clipPath>
</defs>
</svg>
