<svg width="36" height="24" viewBox="0 0 36 24" fill="none" xmlns="http://www.w3.org/2000/svg">
<mask id="mask0_1569_28388" style="mask-type:alpha" maskUnits="userSpaceOnUse" x="0" y="0" width="36" height="24">
<rect width="36" height="24" fill="#C4C4C4"/>
</mask>
<g mask="url(#mask0_1569_28388)">
<path d="M36.5714 18.4643H0V20.3071H36.5714V18.4643Z" fill="#B22234"/>
<path d="M17.0195 0V0.921428V1.84286H36.5695V0H17.0195Z" fill="#B22234"/>
<path d="M36.5695 1.84283H17.0195V3.68569H36.5695V1.84283Z" fill="white"/>
<path d="M36.5695 3.69287H17.0195V5.53573H36.5695V3.69287Z" fill="#B22234"/>
<path d="M36.5695 5.53571H17.0195V7.37856H36.5695V5.53571Z" fill="white"/>
<path d="M36.5695 7.38574H17.0195V9.2286H36.5695V7.38574Z" fill="#B22234"/>
<path d="M36.5695 9.22858H17.0195V11.0714H36.5695V9.22858Z" fill="white"/>
<path d="M36.5695 11.0786H17.0195V12.9214H36.5695V11.0786Z" fill="#B22234"/>
<path d="M36.5714 12.9214H0V14.7643H36.5714V12.9214Z" fill="white"/>
<path d="M36.5714 14.7714H0V16.6143H36.5714V14.7714Z" fill="#B22234"/>
<path d="M36.5714 20.3071H0V22.15H36.5714V20.3071Z" fill="white"/>
<path d="M36.5714 22.1572H0V24H36.5714V22.1572Z" fill="#B22234"/>
<path d="M0 0V0.921428V1.84286V12.9214H17.0214V1.84286V0.921428V0H0Z" fill="#3C3B6E"/>
<path d="M1.7714 1.46426L1.91425 1.88569H2.35711C2.41425 1.88569 2.43568 1.95711 2.39283 1.99283L2.03568 2.25711L2.1714 2.67854C2.18568 2.73569 2.12854 2.77854 2.07854 2.74283L1.7214 2.48569L1.36425 2.74283C1.31425 2.77854 1.25711 2.72854 1.2714 2.67854L1.40711 2.25711L1.04997 1.99283C1.00711 1.95711 1.02854 1.88569 1.08568 1.88569H1.52854L1.6714 1.46426C1.67854 1.41426 1.74997 1.41426 1.7714 1.46426Z" fill="white"/>
<path d="M1.7714 3.65711L1.91425 4.07854H2.35711C2.41425 4.07854 2.43568 4.14997 2.39283 4.18569L2.03568 4.44997L2.1714 4.8714C2.18568 4.92854 2.12854 4.9714 2.07854 4.93569L1.7214 4.67854L1.36425 4.93569C1.31425 4.9714 1.25711 4.9214 1.2714 4.8714L1.40711 4.44997L1.04997 4.18569C1.00711 4.14997 1.02854 4.07854 1.08568 4.07854H1.52854L1.6714 3.65711C1.67854 3.59997 1.74997 3.59997 1.7714 3.65711Z" fill="white"/>
<path d="M1.7714 5.8428L1.91425 6.26423H2.35711C2.41425 6.26423 2.43568 6.33565 2.39283 6.37137L2.03568 6.63565L2.1714 7.05708C2.18568 7.11423 2.12854 7.15708 2.07854 7.12137L1.7214 6.86423L1.36425 7.12137C1.31425 7.15708 1.25711 7.10708 1.2714 7.05708L1.40711 6.63565L1.04997 6.37137C1.00711 6.33565 1.02854 6.26423 1.08568 6.26423H1.52854L1.6714 5.8428C1.67854 5.7928 1.74997 5.7928 1.7714 5.8428Z" fill="white"/>
<path d="M1.7714 8.03565L1.91425 8.45708H2.35711C2.41425 8.45708 2.43568 8.52851 2.39283 8.56423L2.03568 8.82851L2.1714 9.24994C2.18568 9.30708 2.12854 9.34994 2.07854 9.31423L1.7214 9.05708L1.36425 9.31423C1.31425 9.34994 1.25711 9.29994 1.2714 9.24994L1.40711 8.82851L1.04997 8.56423C1.00711 8.52851 1.02854 8.45708 1.08568 8.45708H1.52854L1.6714 8.03565C1.67854 7.97851 1.74997 7.97851 1.7714 8.03565Z" fill="white"/>
<path d="M1.7714 10.2285L1.91425 10.65H2.35711C2.41425 10.65 2.43568 10.7214 2.39283 10.7571L2.03568 11.0214L2.1714 11.4428C2.18568 11.5 2.12854 11.5428 2.07854 11.5071L1.7214 11.25L1.36425 11.5071C1.31425 11.5428 1.25711 11.4928 1.2714 11.4428L1.40711 11.0214L1.04997 10.7571C1.00711 10.7214 1.02854 10.65 1.08568 10.65H1.52854L1.6714 10.2285C1.67854 10.1714 1.74997 10.1714 1.7714 10.2285Z" fill="white"/>
<path d="M3.47062 2.5428L3.61347 2.96422H4.05633C4.11347 2.96422 4.1349 3.03565 4.09204 3.07137L3.7349 3.33565L3.87062 3.75708C3.8849 3.81422 3.82776 3.85708 3.77776 3.82137L3.42062 3.56422L3.06347 3.82137C3.01347 3.85708 2.95633 3.80708 2.97062 3.75708L3.10633 3.33565L2.74919 3.07137C2.70633 3.03565 2.72776 2.96422 2.7849 2.96422H3.22776L3.37062 2.5428C3.37776 2.48565 3.44919 2.48565 3.47062 2.5428Z" fill="white"/>
<path d="M3.47062 4.72854L3.61347 5.14997H4.05633C4.11347 5.14997 4.1349 5.2214 4.09204 5.25711L3.7349 5.5214L3.87062 5.94282C3.8849 5.99997 3.82776 6.04283 3.77776 6.00711L3.42062 5.74997L3.06347 6.00711C3.01347 6.04283 2.95633 5.99282 2.97062 5.94282L3.10633 5.5214L2.74919 5.25711C2.70633 5.2214 2.72776 5.14997 2.7849 5.14997H3.22776L3.37062 4.72854C3.37776 4.67854 3.44919 4.67854 3.47062 4.72854Z" fill="white"/>
<path d="M3.47062 6.9214L3.61347 7.34283H4.05633C4.11347 7.34283 4.1349 7.41425 4.09204 7.44997L3.7349 7.71425L3.87062 8.13568C3.8849 8.19283 3.82776 8.23568 3.77776 8.19997L3.42062 7.94283L3.06347 8.19997C3.01347 8.23568 2.95633 8.18568 2.97062 8.13568L3.10633 7.71425L2.74919 7.44997C2.70633 7.41425 2.72776 7.34283 2.7849 7.34283H3.22776L3.37062 6.9214C3.37776 6.86425 3.44919 6.86425 3.47062 6.9214Z" fill="white"/>
<path d="M3.47062 9.10708L3.61347 9.52851H4.05633C4.11347 9.52851 4.1349 9.59994 4.09204 9.63565L3.7349 9.89994L3.87062 10.3214C3.8849 10.3785 3.82776 10.4214 3.77776 10.3857L3.42062 10.1285L3.06347 10.3857C3.01347 10.4214 2.95633 10.3714 2.97062 10.3214L3.10633 9.89994L2.74919 9.63565C2.70633 9.59994 2.72776 9.52851 2.7849 9.52851H3.22776L3.37062 9.10708C3.37776 9.05708 3.44919 9.05708 3.47062 9.10708Z" fill="white"/>
<path d="M5.16984 1.46426L5.31269 1.88569H5.75555C5.81269 1.88569 5.83412 1.95711 5.79126 1.99283L5.43412 2.25711L5.56983 2.67854C5.58412 2.73569 5.52698 2.77854 5.47698 2.74283L5.11983 2.48569L4.76269 2.74283C4.71269 2.77854 4.65555 2.72854 4.66984 2.67854L4.80555 2.25711L4.44841 1.99283C4.40555 1.95711 4.42698 1.88569 4.48412 1.88569H4.92698L5.06984 1.46426C5.06984 1.41426 5.14841 1.41426 5.16984 1.46426Z" fill="white"/>
<path d="M5.16984 3.65711L5.31269 4.07854H5.75555C5.81269 4.07854 5.83412 4.14997 5.79126 4.18569L5.43412 4.44997L5.56983 4.8714C5.58412 4.92854 5.52698 4.9714 5.47698 4.93569L5.11983 4.67854L4.76269 4.93569C4.71269 4.9714 4.65555 4.9214 4.66984 4.8714L4.80555 4.44997L4.44841 4.18569C4.40555 4.14997 4.42698 4.07854 4.48412 4.07854H4.92698L5.06984 3.65711C5.06984 3.59997 5.14841 3.59997 5.16984 3.65711Z" fill="white"/>
<path d="M5.16984 5.8428L5.31269 6.26423H5.75555C5.81269 6.26423 5.83412 6.33565 5.79126 6.37137L5.43412 6.63565L5.56983 7.05708C5.58412 7.11423 5.52698 7.15708 5.47698 7.12137L5.11983 6.86423L4.76269 7.12137C4.71269 7.15708 4.65555 7.10708 4.66984 7.05708L4.80555 6.63565L4.44841 6.37137C4.40555 6.33565 4.42698 6.26423 4.48412 6.26423H4.92698L5.06984 5.8428C5.06984 5.7928 5.14841 5.7928 5.16984 5.8428Z" fill="white"/>
<path d="M5.16984 8.03565L5.31269 8.45708H5.75555C5.81269 8.45708 5.83412 8.52851 5.79126 8.56423L5.43412 8.82851L5.56983 9.24994C5.58412 9.30708 5.52698 9.34994 5.47698 9.31423L5.11983 9.05708L4.76269 9.31423C4.71269 9.34994 4.65555 9.29994 4.66984 9.24994L4.80555 8.82851L4.44841 8.56423C4.40555 8.52851 4.42698 8.45708 4.48412 8.45708H4.92698L5.06984 8.03565C5.06984 7.97851 5.14841 7.97851 5.16984 8.03565Z" fill="white"/>
<path d="M5.16984 10.2285L5.31269 10.65H5.75555C5.81269 10.65 5.83412 10.7214 5.79126 10.7571L5.43412 11.0214L5.56983 11.4428C5.58412 11.5 5.52698 11.5428 5.47698 11.5071L5.11983 11.25L4.76269 11.5071C4.71269 11.5428 4.65555 11.4928 4.66984 11.4428L4.80555 11.0214L4.44841 10.7571C4.40555 10.7214 4.42698 10.65 4.48412 10.65H4.92698L5.06984 10.2285C5.06984 10.1714 5.14841 10.1714 5.16984 10.2285Z" fill="white"/>
<path d="M6.87296 2.5428L7.01582 2.96422H7.45867C7.51582 2.96422 7.53725 3.03565 7.49439 3.07137L7.13725 3.33565L7.27296 3.75708C7.28725 3.81422 7.2301 3.85708 7.1801 3.82137L6.82296 3.56422L6.46582 3.82137C6.41582 3.85708 6.35867 3.80708 6.37296 3.75708L6.50867 3.33565L6.15153 3.07137C6.10867 3.03565 6.1301 2.96422 6.18725 2.96422H6.6301L6.77296 2.5428C6.77296 2.48565 6.85153 2.48565 6.87296 2.5428Z" fill="white"/>
<path d="M6.87296 4.72854L7.01582 5.14997H7.45867C7.51582 5.14997 7.53725 5.2214 7.49439 5.25711L7.13725 5.5214L7.27296 5.94282C7.28725 5.99997 7.2301 6.04283 7.1801 6.00711L6.82296 5.74997L6.46582 6.00711C6.41582 6.04283 6.35867 5.99282 6.37296 5.94282L6.50867 5.5214L6.15153 5.25711C6.10867 5.2214 6.1301 5.14997 6.18725 5.14997H6.6301L6.77296 4.72854C6.77296 4.67854 6.85153 4.67854 6.87296 4.72854Z" fill="white"/>
<path d="M6.87296 6.9214L7.01582 7.34283H7.45867C7.51582 7.34283 7.53725 7.41425 7.49439 7.44997L7.13725 7.71425L7.27296 8.13568C7.28725 8.19283 7.2301 8.23568 7.1801 8.19997L6.82296 7.94283L6.46582 8.19997C6.41582 8.23568 6.35867 8.18568 6.37296 8.13568L6.50867 7.71425L6.15153 7.44997C6.10867 7.41425 6.1301 7.34283 6.18725 7.34283H6.6301L6.77296 6.9214C6.77296 6.86425 6.85153 6.86425 6.87296 6.9214Z" fill="white"/>
<path d="M6.87296 9.10708L7.01582 9.52851H7.45867C7.51582 9.52851 7.53725 9.59994 7.49439 9.63565L7.13725 9.89994L7.27296 10.3214C7.28725 10.3785 7.2301 10.4214 7.1801 10.3857L6.82296 10.1285L6.46582 10.3857C6.41582 10.4214 6.35867 10.3714 6.37296 10.3214L6.50867 9.89994L6.15153 9.63565C6.10867 9.59994 6.1301 9.52851 6.18725 9.52851H6.6301L6.77296 9.10708C6.77296 9.05708 6.85153 9.05708 6.87296 9.10708Z" fill="white"/>
<path d="M8.57218 1.46426L8.71504 1.88569H9.15789C9.21504 1.88569 9.23646 1.95711 9.19361 1.99283L8.83646 2.25711L8.97218 2.67854C8.98646 2.73569 8.92932 2.77854 8.87932 2.74283L8.52218 2.48569L8.16504 2.74283C8.11504 2.77854 8.05789 2.72854 8.07218 2.67854L8.20789 2.25711L7.85075 1.99283C7.80789 1.95711 7.82932 1.88569 7.88646 1.88569H8.32932L8.47218 1.46426C8.47218 1.41426 8.55075 1.41426 8.57218 1.46426Z" fill="white"/>
<path d="M8.57218 3.65711L8.71504 4.07854H9.15789C9.21504 4.07854 9.23646 4.14997 9.19361 4.18569L8.83646 4.44997L8.97218 4.8714C8.98646 4.92854 8.92932 4.9714 8.87932 4.93569L8.52218 4.67854L8.16504 4.93569C8.11504 4.9714 8.05789 4.9214 8.07218 4.8714L8.20789 4.44997L7.85075 4.18569C7.80789 4.14997 7.82932 4.07854 7.88646 4.07854H8.32932L8.47218 3.65711C8.47218 3.59997 8.55075 3.59997 8.57218 3.65711Z" fill="white"/>
<path d="M8.57218 5.8428L8.71504 6.26423H9.15789C9.21504 6.26423 9.23646 6.33565 9.19361 6.37137L8.83646 6.63565L8.97218 7.05708C8.98646 7.11423 8.92932 7.15708 8.87932 7.12137L8.52218 6.86423L8.16504 7.12137C8.11504 7.15708 8.05789 7.10708 8.07218 7.05708L8.20789 6.63565L7.85075 6.37137C7.80789 6.33565 7.82932 6.26423 7.88646 6.26423H8.32932L8.47218 5.8428C8.47218 5.7928 8.55075 5.7928 8.57218 5.8428Z" fill="white"/>
<path d="M8.57218 8.03565L8.71504 8.45708H9.15789C9.21504 8.45708 9.23646 8.52851 9.19361 8.56423L8.83646 8.82851L8.97218 9.24994C8.98646 9.30708 8.92932 9.34994 8.87932 9.31423L8.52218 9.05708L8.16504 9.31423C8.11504 9.34994 8.05789 9.29994 8.07218 9.24994L8.20789 8.82851L7.85075 8.56423C7.80789 8.52851 7.82932 8.45708 7.88646 8.45708H8.32932L8.47218 8.03565C8.47218 7.97851 8.55075 7.97851 8.57218 8.03565Z" fill="white"/>
<path d="M8.57218 10.2285L8.71504 10.65H9.15789C9.21504 10.65 9.23646 10.7214 9.19361 10.7571L8.83646 11.0214L8.97218 11.4428C8.98646 11.5 8.92932 11.5428 8.87932 11.5071L8.52218 11.25L8.16504 11.5071C8.11504 11.5428 8.05789 11.4928 8.07218 11.4428L8.20789 11.0214L7.85075 10.7571C7.80789 10.7214 7.82932 10.65 7.88646 10.65H8.32932L8.47218 10.2285C8.47218 10.1714 8.55075 10.1714 8.57218 10.2285Z" fill="white"/>
<path d="M10.2714 2.5428L10.4143 2.96422H10.8571C10.9143 2.96422 10.9357 3.03565 10.8928 3.07137L10.5357 3.33565L10.6714 3.75708C10.6857 3.81422 10.6285 3.85708 10.5785 3.82137L10.2214 3.56422L9.86426 3.82137C9.81426 3.85708 9.75711 3.80708 9.7714 3.75708L9.90711 3.33565L9.54997 3.07137C9.50711 3.03565 9.52854 2.96422 9.58568 2.96422H10.0285L10.1714 2.5428C10.1714 2.48565 10.25 2.48565 10.2714 2.5428Z" fill="white"/>
<path d="M10.2714 4.72854L10.4143 5.14997H10.8571C10.9143 5.14997 10.9357 5.2214 10.8928 5.25711L10.5357 5.5214L10.6714 5.94282C10.6857 5.99997 10.6285 6.04283 10.5785 6.00711L10.2214 5.74997L9.86426 6.00711C9.81426 6.04283 9.75711 5.99282 9.7714 5.94282L9.90711 5.5214L9.54997 5.25711C9.50711 5.2214 9.52854 5.14997 9.58568 5.14997H10.0285L10.1714 4.72854C10.1714 4.67854 10.25 4.67854 10.2714 4.72854Z" fill="white"/>
<path d="M10.2714 6.9214L10.4143 7.34283H10.8571C10.9143 7.34283 10.9357 7.41425 10.8928 7.44997L10.5357 7.71425L10.6714 8.13568C10.6857 8.19283 10.6285 8.23568 10.5785 8.19997L10.2214 7.94283L9.86426 8.19997C9.81426 8.23568 9.75711 8.18568 9.7714 8.13568L9.90711 7.71425L9.54997 7.44997C9.50711 7.41425 9.52854 7.34283 9.58568 7.34283H10.0285L10.1714 6.9214C10.1714 6.86425 10.25 6.86425 10.2714 6.9214Z" fill="white"/>
<path d="M10.2714 9.10708L10.4143 9.52851H10.8571C10.9143 9.52851 10.9357 9.59994 10.8928 9.63565L10.5357 9.89994L10.6714 10.3214C10.6857 10.3785 10.6285 10.4214 10.5785 10.3857L10.2214 10.1285L9.86426 10.3857C9.81426 10.4214 9.75711 10.3714 9.7714 10.3214L9.90711 9.89994L9.54997 9.63565C9.50711 9.59994 9.52854 9.52851 9.58568 9.52851H10.0285L10.1714 9.10708C10.1714 9.05708 10.25 9.05708 10.2714 9.10708Z" fill="white"/>
<path d="M11.9628 1.46426L12.1057 1.88569H12.5485C12.6057 1.88569 12.6271 1.95711 12.5842 1.99283L12.2271 2.25711L12.3628 2.67854C12.3771 2.73569 12.3199 2.77854 12.2699 2.74283L11.9128 2.48569L11.5557 2.74283C11.5057 2.77854 11.4485 2.72854 11.4628 2.67854L11.5985 2.25711L11.2414 1.99283C11.1985 1.95711 11.2199 1.88569 11.2771 1.88569H11.7199L11.8628 1.46426C11.8699 1.41426 11.9485 1.41426 11.9628 1.46426Z" fill="white"/>
<path d="M11.9628 3.65711L12.1057 4.07854H12.5485C12.6057 4.07854 12.6271 4.14997 12.5842 4.18569L12.2271 4.44997L12.3628 4.8714C12.3771 4.92854 12.3199 4.9714 12.2699 4.93569L11.9128 4.67854L11.5557 4.93569C11.5057 4.9714 11.4485 4.9214 11.4628 4.8714L11.5985 4.44997L11.2414 4.18569C11.1985 4.14997 11.2199 4.07854 11.2771 4.07854H11.7199L11.8628 3.65711C11.8699 3.59997 11.9485 3.59997 11.9628 3.65711Z" fill="white"/>
<path d="M11.9628 5.8428L12.1057 6.26423H12.5485C12.6057 6.26423 12.6271 6.33565 12.5842 6.37137L12.2271 6.63565L12.3628 7.05708C12.3771 7.11423 12.3199 7.15708 12.2699 7.12137L11.9128 6.86423L11.5557 7.12137C11.5057 7.15708 11.4485 7.10708 11.4628 7.05708L11.5985 6.63565L11.2414 6.37137C11.1985 6.33565 11.2199 6.26423 11.2771 6.26423H11.7199L11.8628 5.8428C11.8699 5.7928 11.9485 5.7928 11.9628 5.8428Z" fill="white"/>
<path d="M11.9628 8.03565L12.1057 8.45708H12.5485C12.6057 8.45708 12.6271 8.52851 12.5842 8.56423L12.2271 8.82851L12.3628 9.24994C12.3771 9.30708 12.3199 9.34994 12.2699 9.31423L11.9128 9.05708L11.5557 9.31423C11.5057 9.34994 11.4485 9.29994 11.4628 9.24994L11.5985 8.82851L11.2414 8.56423C11.1985 8.52851 11.2199 8.45708 11.2771 8.45708H11.7199L11.8628 8.03565C11.8699 7.97851 11.9485 7.97851 11.9628 8.03565Z" fill="white"/>
<path d="M11.9628 10.2285L12.1057 10.65H12.5485C12.6057 10.65 12.6271 10.7214 12.5842 10.7571L12.2271 11.0214L12.3628 11.4428C12.3771 11.5 12.3199 11.5428 12.2699 11.5071L11.9128 11.25L11.5557 11.5071C11.5057 11.5428 11.4485 11.4928 11.4628 11.4428L11.5985 11.0214L11.2414 10.7571C11.1985 10.7214 11.2199 10.65 11.2771 10.65H11.7199L11.8628 10.2285C11.8699 10.1714 11.9485 10.1714 11.9628 10.2285Z" fill="white"/>
<path d="M13.6659 2.5428L13.8088 2.96422H14.2516C14.3088 2.96422 14.3302 3.03565 14.2874 3.07137L13.9302 3.33565L14.0659 3.75708C14.0802 3.81422 14.0231 3.85708 13.9731 3.82137L13.6159 3.56422L13.2588 3.82137C13.2088 3.85708 13.1516 3.80708 13.1659 3.75708L13.3016 3.33565L12.9445 3.07137C12.9016 3.03565 12.9231 2.96422 12.9802 2.96422H13.4231L13.5659 2.5428C13.5731 2.48565 13.6516 2.48565 13.6659 2.5428Z" fill="white"/>
<path d="M13.6659 4.72854L13.8088 5.14997H14.2516C14.3088 5.14997 14.3302 5.2214 14.2874 5.25711L13.9302 5.5214L14.0659 5.94282C14.0802 5.99997 14.0231 6.04283 13.9731 6.00711L13.6159 5.74997L13.2588 6.00711C13.2088 6.04283 13.1516 5.99282 13.1659 5.94282L13.3016 5.5214L12.9445 5.25711C12.9016 5.2214 12.9231 5.14997 12.9802 5.14997H13.4231L13.5659 4.72854C13.5731 4.67854 13.6516 4.67854 13.6659 4.72854Z" fill="white"/>
<path d="M13.6659 6.9214L13.8088 7.34283H14.2516C14.3088 7.34283 14.3302 7.41425 14.2874 7.44997L13.9302 7.71425L14.0659 8.13568C14.0802 8.19283 14.0231 8.23568 13.9731 8.19997L13.6159 7.94283L13.2588 8.19997C13.2088 8.23568 13.1516 8.18568 13.1659 8.13568L13.3016 7.71425L12.9445 7.44997C12.9016 7.41425 12.9231 7.34283 12.9802 7.34283H13.4231L13.5659 6.9214C13.5731 6.86425 13.6516 6.86425 13.6659 6.9214Z" fill="white"/>
<path d="M13.6659 9.10708L13.8088 9.52851H14.2516C14.3088 9.52851 14.3302 9.59994 14.2874 9.63565L13.9302 9.89994L14.0659 10.3214C14.0802 10.3785 14.0231 10.4214 13.9731 10.3857L13.6159 10.1285L13.2588 10.3857C13.2088 10.4214 13.1516 10.3714 13.1659 10.3214L13.3016 9.89994L12.9445 9.63565C12.9016 9.59994 12.9231 9.52851 12.9802 9.52851H13.4231L13.5659 9.10708C13.5731 9.05708 13.6516 9.05708 13.6659 9.10708Z" fill="white"/>
<path d="M15.3651 1.46426L15.508 1.88569H15.9509C16.008 1.88569 16.0294 1.95711 15.9866 1.99283L15.6294 2.25711L15.7651 2.67854C15.7794 2.73569 15.7223 2.77854 15.6723 2.74283L15.3151 2.48569L14.958 2.74283C14.908 2.77854 14.8509 2.72854 14.8651 2.67854L15.0009 2.25711L14.6437 1.99283C14.6009 1.95711 14.6223 1.88569 14.6794 1.88569H15.1223L15.2651 1.46426C15.2723 1.41426 15.3509 1.41426 15.3651 1.46426Z" fill="white"/>
<path d="M15.3651 3.65711L15.508 4.07854H15.9509C16.008 4.07854 16.0294 4.14997 15.9866 4.18569L15.6294 4.44997L15.7651 4.8714C15.7794 4.92854 15.7223 4.9714 15.6723 4.93569L15.3151 4.67854L14.958 4.93569C14.908 4.9714 14.8509 4.9214 14.8651 4.8714L15.0009 4.44997L14.6437 4.18569C14.6009 4.14997 14.6223 4.07854 14.6794 4.07854H15.1223L15.2651 3.65711C15.2723 3.59997 15.3509 3.59997 15.3651 3.65711Z" fill="white"/>
<path d="M15.3651 5.8428L15.508 6.26423H15.9509C16.008 6.26423 16.0294 6.33565 15.9866 6.37137L15.6294 6.63565L15.7651 7.05708C15.7794 7.11423 15.7223 7.15708 15.6723 7.12137L15.3151 6.86423L14.958 7.12137C14.908 7.15708 14.8509 7.10708 14.8651 7.05708L15.0009 6.63565L14.6437 6.37137C14.6009 6.33565 14.6223 6.26423 14.6794 6.26423H15.1223L15.2651 5.8428C15.2723 5.7928 15.3509 5.7928 15.3651 5.8428Z" fill="white"/>
<path d="M15.3651 8.03565L15.508 8.45708H15.9509C16.008 8.45708 16.0294 8.52851 15.9866 8.56423L15.6294 8.82851L15.7651 9.24994C15.7794 9.30708 15.7223 9.34994 15.6723 9.31423L15.3151 9.05708L14.958 9.31423C14.908 9.34994 14.8509 9.29994 14.8651 9.24994L15.0009 8.82851L14.6437 8.56423C14.6009 8.52851 14.6223 8.45708 14.6794 8.45708H15.1223L15.2651 8.03565C15.2723 7.97851 15.3509 7.97851 15.3651 8.03565Z" fill="white"/>
<path d="M15.3651 10.2285L15.508 10.65H15.9509C16.008 10.65 16.0294 10.7214 15.9866 10.7571L15.6294 11.0214L15.7651 11.4428C15.7794 11.5 15.7223 11.5428 15.6723 11.5071L15.3151 11.25L14.958 11.5071C14.908 11.5428 14.8509 11.4928 14.8651 11.4428L15.0009 11.0214L14.6437 10.7571C14.6009 10.7214 14.6223 10.65 14.6794 10.65H15.1223L15.2651 10.2285C15.2723 10.1714 15.3509 10.1714 15.3651 10.2285Z" fill="white"/>
<path d="M36.5714 16.6143H0V18.4571H36.5714V16.6143Z" fill="white"/>
</g>
</svg>
