<svg width="40" height="40" viewBox="0 0 40 40" fill="none" xmlns="http://www.w3.org/2000/svg">
<g clipPath="url(#clip0_1210_19372)">
<path d="M38.875 20C38.875 30.4244 30.4244 38.875 20 38.875C9.57563 38.875 1.125 30.4244 1.125 20C1.125 9.57563 9.57563 1.125 20 1.125C30.4244 1.125 38.875 9.57563 38.875 20Z" fill="#FDFDFD" stroke="#F9F9F9"/>
<path d="M35.548 31.5468C33.741 29.1275 31.3947 27.1631 28.6954 25.8097C25.9962 24.4562 23.0184 23.7509 19.9989 23.75C16.9793 23.7491 14.0011 24.4524 11.301 25.8042C8.60091 27.156 6.25333 29.1189 4.44482 31.537C6.24413 33.9674 8.58789 35.9423 11.2881 37.3034C13.9884 38.6646 16.97 39.3741 19.994 39.375C23.0179 39.376 26 38.6683 28.7011 37.3089C31.4022 35.9494 33.7472 33.976 35.548 31.5468Z" fill="#9F9589"/>
<path d="M20 21.25C24.1421 21.25 27.5 17.8921 27.5 13.75C27.5 9.60786 24.1421 6.25 20 6.25C15.8579 6.25 12.5 9.60786 12.5 13.75C12.5 17.8921 15.8579 21.25 20 21.25Z" fill="#9F9589"/>
</g>
<defs>
<clipPath id="clip0_1210_19372">
<rect width="40" height="40" fill="white"/>
</clipPath>
</defs>
</svg>
