<svg width="104" height="104" viewBox="0 0 104 104" fill="none" xmlns="http://www.w3.org/2000/svg">
<path d="M52 102.375C79.8213 102.375 102.375 79.8213 102.375 52C102.375 24.1787 79.8213 1.625 52 1.625C24.1787 1.625 1.625 24.1787 1.625 52C1.625 79.8213 24.1787 102.375 52 102.375Z" fill="#FCFCFC"/>
<path d="M92.4251 82.0216C87.7269 75.7316 81.6264 70.6241 74.6084 67.1051C67.5903 63.5861 59.8482 61.7525 51.9973 61.75C44.1464 61.7475 36.4032 63.5763 29.3829 67.0909C22.3627 70.6056 16.2589 75.7092 11.5568 81.9962C16.235 88.3151 22.3288 93.4499 29.3495 96.9889C36.3701 100.528 44.1224 102.373 51.9846 102.375C59.8468 102.378 67.6002 100.538 74.6231 97.0031C81.646 93.4685 87.7429 88.3375 92.4251 82.0216Z" fill="#9F9589"/>
<path d="M52 55.25C62.7696 55.25 71.5 46.5196 71.5 35.75C71.5 24.9804 62.7696 16.25 52 16.25C41.2304 16.25 32.5 24.9804 32.5 35.75C32.5 46.5196 41.2304 55.25 52 55.25Z" fill="#9F9589"/>
</svg>
