<svg width="32" height="32" viewBox="0 0 32 32" fill="none" xmlns="http://www.w3.org/2000/svg">
<path d="M28.0679 24.9425L17.4161 5.16125C16.6611 3.75875 14.6498 3.75875 13.8942 5.16125L3.24292 24.9425C3.079 25.247 2.99681 25.5887 3.00439 25.9345C3.01196 26.2802 3.10905 26.618 3.28616 26.915C3.46328 27.212 3.71437 27.458 4.01493 27.629C4.31549 27.8 4.65525 27.8901 5.00105 27.8906H26.3067C26.6527 27.8907 26.9929 27.8009 27.2939 27.6302C27.5949 27.4594 27.8464 27.2134 28.0239 26.9163C28.2014 26.6193 28.2987 26.2812 28.3064 25.9352C28.3142 25.5893 28.232 25.2472 28.0679 24.9425ZM15.6554 24.8281C15.4082 24.8281 15.1665 24.7548 14.961 24.6175C14.7554 24.4801 14.5952 24.2849 14.5006 24.0565C14.406 23.8281 14.3812 23.5767 14.4294 23.3343C14.4777 23.0918 14.5967 22.8691 14.7715 22.6942C14.9464 22.5194 15.1691 22.4004 15.4116 22.3521C15.654 22.3039 15.9054 22.3287 16.1338 22.4233C16.3622 22.5179 16.5574 22.6781 16.6948 22.8837C16.8321 23.0892 16.9054 23.3309 16.9054 23.5781C16.9054 23.7423 16.8731 23.9048 16.8103 24.0565C16.7475 24.2081 16.6554 24.3459 16.5393 24.462C16.4232 24.5781 16.2854 24.6702 16.1338 24.733C15.9821 24.7958 15.8196 24.8281 15.6554 24.8281ZM17.0129 12.2563L16.6542 19.8813C16.6542 20.1465 16.5488 20.4008 16.3613 20.5884C16.1737 20.7759 15.9194 20.8813 15.6542 20.8813C15.389 20.8813 15.1346 20.7759 14.9471 20.5884C14.7595 20.4008 14.6542 20.1465 14.6542 19.8813L14.2954 12.2594C14.2874 12.0772 14.3161 11.8954 14.3798 11.7245C14.4435 11.5537 14.541 11.3975 14.6664 11.2652C14.7918 11.1328 14.9425 11.0271 15.1097 10.9543C15.2768 10.8814 15.4569 10.843 15.6392 10.8413H15.6523C15.8358 10.8412 16.0175 10.8782 16.1863 10.9503C16.3551 11.0223 16.5076 11.1278 16.6345 11.2604C16.7614 11.393 16.8602 11.5499 16.9248 11.7217C16.9894 11.8935 17.0185 12.0766 17.0104 12.26L17.0129 12.2563Z" fill="#FABC1E"/>
</svg>
